G04*
G04 #@! TF.GenerationSoftware,Altium Limited,Altium Designer,20.1.8 (145)*
G04*
G04 Layer_Physical_Order=1*
G04 Layer_Color=255*
%FSLAX25Y25*%
%MOIN*%
G70*
G04*
G04 #@! TF.SameCoordinates,C1F37BB6-5B76-4B97-91C3-AF8EDC61D9EA*
G04*
G04*
G04 #@! TF.FilePolarity,Positive*
G04*
G01*
G75*
%ADD13R,0.06299X0.06299*%
%ADD14C,0.06299*%
%ADD28R,0.02953X0.10236*%
%ADD29R,0.04724X0.08661*%
%ADD30R,0.08661X0.04724*%
%ADD31C,0.03150*%
%ADD32C,0.01575*%
%ADD33C,0.02362*%
%ADD34C,0.11811*%
%ADD35R,0.05906X0.05906*%
%ADD36C,0.05906*%
%ADD37C,0.04961*%
%ADD38R,0.04961X0.04961*%
%ADD39C,0.05600*%
%ADD40C,0.06102*%
%ADD41R,0.11811X0.11811*%
%ADD42C,0.11811*%
%ADD43R,0.05906X0.05906*%
%ADD44C,0.05937*%
%ADD45R,0.05937X0.05937*%
%ADD46R,0.04961X0.04961*%
%ADD47C,0.02362*%
G36*
X64327Y302255D02*
X64315Y302259D01*
X64290Y302262D01*
X64251Y302265D01*
X63852Y302274D01*
X63596Y302275D01*
X63484Y303850D01*
X63618Y303851D01*
X64193Y303886D01*
X64223Y303895D01*
X64239Y303906D01*
X64327Y302255D01*
D02*
G37*
G36*
X45310Y303866D02*
X45335Y303863D01*
X45374Y303860D01*
X45773Y303851D01*
X46029Y303850D01*
X46141Y302275D01*
X46007Y302274D01*
X45432Y302239D01*
X45403Y302230D01*
X45386Y302219D01*
X45298Y303870D01*
X45310Y303866D01*
D02*
G37*
G36*
X64157Y298173D02*
X64142Y298181D01*
X64114Y298187D01*
X64073Y298193D01*
X63951Y298203D01*
X63546Y298212D01*
X63411Y298213D01*
Y299787D01*
X64157Y299827D01*
Y298173D01*
D02*
G37*
G36*
X52858Y299819D02*
X52886Y299813D01*
X52927Y299807D01*
X53049Y299797D01*
X53454Y299788D01*
X53589Y299787D01*
Y298213D01*
X52843Y298173D01*
Y299827D01*
X52858Y299819D01*
D02*
G37*
G36*
X86095Y310000D02*
X86202Y309462D01*
X86506Y309007D01*
X91507Y304007D01*
X91962Y303702D01*
X92500Y303595D01*
X164418Y303595D01*
X168595Y299418D01*
Y292391D01*
X167595Y291723D01*
X167507Y291759D01*
X167189Y291801D01*
Y288000D01*
Y284199D01*
X167507Y284241D01*
X168446Y284630D01*
X168957Y285022D01*
X169266D01*
X175822Y278466D01*
Y245079D01*
X175721Y244978D01*
X171997D01*
X171981Y245000D01*
X171056Y245709D01*
X169978Y246156D01*
X169859Y246171D01*
X169247Y247261D01*
X169292Y247361D01*
X169393Y247448D01*
X169978Y247526D01*
X171056Y247972D01*
X171981Y248682D01*
X172691Y249607D01*
X173137Y250684D01*
X173290Y251841D01*
X173137Y252997D01*
X172691Y254074D01*
X171981Y254999D01*
X171056Y255710D01*
X169978Y256156D01*
X168822Y256308D01*
X167666Y256156D01*
X166588Y255710D01*
X165663Y254999D01*
X164953Y254074D01*
X164507Y252997D01*
X164355Y251841D01*
X164358Y251818D01*
X164355Y251811D01*
X164324Y251742D01*
X164269Y251642D01*
X164186Y251515D01*
X164085Y251377D01*
X163758Y250997D01*
X163556Y250788D01*
X163553Y250783D01*
X158789Y246019D01*
X157733Y246378D01*
X157703Y246607D01*
X157405Y247326D01*
X156932Y247943D01*
X154092Y250783D01*
X154088Y250788D01*
X153886Y250997D01*
X153560Y251377D01*
X153458Y251515D01*
X153375Y251642D01*
X153320Y251742D01*
X153289Y251811D01*
X153287Y251818D01*
X153289Y251841D01*
X153137Y252997D01*
X152691Y254074D01*
X151981Y254999D01*
X151056Y255710D01*
X149978Y256156D01*
X148822Y256308D01*
X147666Y256156D01*
X146589Y255710D01*
X145663Y254999D01*
X144953Y254074D01*
X144507Y252997D01*
X144355Y251841D01*
X144507Y250684D01*
X144953Y249607D01*
X145663Y248682D01*
X146589Y247972D01*
X147666Y247526D01*
X148252Y247448D01*
X148352Y247362D01*
X148397Y247261D01*
X147785Y246171D01*
X147666Y246156D01*
X146589Y245709D01*
X145663Y245000D01*
X144953Y244074D01*
X144507Y242997D01*
X144355Y241841D01*
X144507Y240684D01*
X144953Y239607D01*
X145663Y238682D01*
X146589Y237972D01*
X147666Y237526D01*
X148822Y237373D01*
X149978Y237526D01*
X150848Y237886D01*
X151848Y237457D01*
Y216224D01*
X150848Y215796D01*
X149978Y216156D01*
X148822Y216308D01*
X147666Y216156D01*
X146589Y215709D01*
X145663Y215000D01*
X144953Y214074D01*
X144507Y212997D01*
X144355Y211841D01*
X144507Y210684D01*
X144953Y209607D01*
X145663Y208682D01*
X145681Y208668D01*
X145685Y208661D01*
X145711Y208591D01*
X145743Y208480D01*
X145774Y208332D01*
X145800Y208163D01*
X145838Y207663D01*
X145843Y207373D01*
X145844Y207367D01*
Y164556D01*
X81453Y100164D01*
X81447Y100161D01*
X81241Y99961D01*
X80869Y99637D01*
X80735Y99536D01*
X80613Y99454D01*
X80520Y99401D01*
X80479Y99381D01*
X79365Y99235D01*
X78308Y98797D01*
X77400Y98100D01*
X76703Y97192D01*
X76265Y96135D01*
X76116Y95000D01*
X76265Y93865D01*
X76703Y92808D01*
X77400Y91900D01*
X78308Y91203D01*
X79365Y90765D01*
X80500Y90616D01*
X81635Y90765D01*
X82692Y91203D01*
X83600Y91900D01*
X84297Y92808D01*
X84735Y93865D01*
X84881Y94978D01*
X84901Y95020D01*
X84954Y95113D01*
X85036Y95235D01*
X85137Y95369D01*
X85461Y95741D01*
X85661Y95947D01*
X85664Y95953D01*
X113598Y123886D01*
X114522Y123503D01*
Y51405D01*
X105582D01*
X101405Y55582D01*
X101405Y75000D01*
X101298Y75538D01*
X100993Y75993D01*
X95993Y80993D01*
X95538Y81298D01*
X95000Y81405D01*
X59158D01*
Y90675D01*
X59160Y90681D01*
X59164Y90968D01*
X59198Y91460D01*
X59222Y91627D01*
X59250Y91770D01*
X59278Y91874D01*
X59293Y91917D01*
X59977Y92808D01*
X60415Y93865D01*
X60564Y95000D01*
X60415Y96135D01*
X59977Y97192D01*
X59280Y98100D01*
X58372Y98797D01*
X57315Y99235D01*
X56180Y99384D01*
X55045Y99235D01*
X53988Y98797D01*
X53080Y98100D01*
X52384Y97192D01*
X51946Y96135D01*
X51796Y95000D01*
X51946Y93865D01*
X52384Y92808D01*
X53067Y91917D01*
X53082Y91874D01*
X53110Y91770D01*
X53139Y91627D01*
X53162Y91460D01*
X53196Y90968D01*
X53201Y90681D01*
X53202Y90675D01*
Y81390D01*
X52963Y81205D01*
X52264Y80993D01*
X51809Y81298D01*
X51271Y81405D01*
X34339Y81405D01*
Y90394D01*
X34339Y90396D01*
X34361Y90968D01*
X34382Y91149D01*
X34409Y91306D01*
X34438Y91422D01*
X34463Y91494D01*
X34463Y91496D01*
X34512Y91556D01*
X34960Y91900D01*
X35657Y92808D01*
X36095Y93865D01*
X36244Y95000D01*
X36095Y96135D01*
X35657Y97192D01*
X34960Y98100D01*
X34052Y98797D01*
X32995Y99235D01*
X31860Y99384D01*
X30726Y99235D01*
X29668Y98797D01*
X28760Y98100D01*
X28064Y97192D01*
X27626Y96135D01*
X27476Y95000D01*
X27626Y93865D01*
X28064Y92808D01*
X28233Y92587D01*
X28253Y92534D01*
X28262Y92518D01*
X28270Y92494D01*
X28291Y92407D01*
X28307Y92315D01*
X28378Y91366D01*
X28381Y91082D01*
X28382Y91075D01*
Y81594D01*
X28027Y81239D01*
X27128Y80993D01*
X26673Y81298D01*
X26135Y81405D01*
X1003D01*
Y172360D01*
X2004Y172774D01*
X2701Y172077D01*
X2707Y172032D01*
X2965Y171409D01*
X3375Y170875D01*
X3909Y170465D01*
X4532Y170207D01*
X5200Y170119D01*
X5868Y170207D01*
X6491Y170465D01*
X7025Y170875D01*
X7435Y171409D01*
X7693Y172032D01*
X7781Y172700D01*
X7693Y173368D01*
X7435Y173991D01*
X7025Y174525D01*
X6491Y174935D01*
X5868Y175193D01*
X5824Y175199D01*
X5818Y175205D01*
X4901Y176122D01*
Y184690D01*
X5901Y185294D01*
X6331Y185116D01*
X7339Y184984D01*
X8346Y185116D01*
X9284Y185505D01*
X10090Y186123D01*
X10709Y186929D01*
X11097Y187868D01*
X11230Y188875D01*
X11097Y189882D01*
X10709Y190821D01*
X10090Y191627D01*
X9284Y192245D01*
X8346Y192634D01*
X7339Y192767D01*
X6331Y192634D01*
X5901Y192456D01*
X4901Y193060D01*
Y201231D01*
X5901Y201570D01*
X6362Y200968D01*
X7267Y200274D01*
X8320Y199838D01*
X9451Y199689D01*
X10582Y199838D01*
X11635Y200274D01*
X12540Y200968D01*
X13234Y201873D01*
X13670Y202927D01*
X13819Y204057D01*
X13670Y205188D01*
X13334Y206000D01*
X13782Y207000D01*
X15120D01*
X15568Y206000D01*
X15232Y205188D01*
X15083Y204057D01*
X15232Y202927D01*
X15668Y201873D01*
X16362Y200968D01*
X17267Y200274D01*
X18320Y199838D01*
X19451Y199689D01*
X20582Y199838D01*
X21635Y200274D01*
X22540Y200968D01*
X23234Y201873D01*
X23670Y202927D01*
X23819Y204057D01*
X23670Y205188D01*
X23334Y206000D01*
X23782Y207000D01*
X25120D01*
Y204746D01*
X29451D01*
Y203368D01*
X25120D01*
Y199726D01*
X29659D01*
X30042Y198802D01*
X26132Y194892D01*
X25653Y194176D01*
X25485Y193331D01*
Y175207D01*
X25653Y174362D01*
X26132Y173646D01*
X27701Y172077D01*
X27707Y172032D01*
X27965Y171409D01*
X28375Y170875D01*
X28909Y170465D01*
X29532Y170207D01*
X30200Y170119D01*
X30868Y170207D01*
X31491Y170465D01*
X32025Y170875D01*
X32435Y171409D01*
X32693Y172032D01*
X32781Y172700D01*
X32693Y173368D01*
X32435Y173991D01*
X32025Y174525D01*
X31491Y174935D01*
X30868Y175193D01*
X30824Y175199D01*
X30818Y175205D01*
X29901Y176122D01*
Y184690D01*
X30901Y185294D01*
X31331Y185116D01*
X32339Y184984D01*
X33346Y185116D01*
X34284Y185505D01*
X35090Y186123D01*
X35709Y186929D01*
X36097Y187868D01*
X36230Y188875D01*
X36097Y189882D01*
X35709Y190821D01*
X35090Y191627D01*
X34284Y192245D01*
X33346Y192634D01*
X32339Y192767D01*
X31563Y192664D01*
X31122Y193301D01*
X31042Y193558D01*
X36130Y198646D01*
X36609Y199363D01*
X36777Y200207D01*
Y201116D01*
X37777Y201455D01*
X38151Y200968D01*
X39055Y200274D01*
X40109Y199838D01*
X41239Y199689D01*
X42370Y199838D01*
X43423Y200274D01*
X44328Y200968D01*
X45022Y201873D01*
X45458Y202927D01*
X45607Y204057D01*
X45458Y205188D01*
X45022Y206241D01*
X44328Y207146D01*
X43423Y207840D01*
X42370Y208276D01*
X41239Y208425D01*
X40109Y208276D01*
X39055Y207840D01*
X38151Y207146D01*
X37777Y206659D01*
X36777Y206998D01*
Y214924D01*
X37777Y215022D01*
X37795Y214931D01*
X38274Y214215D01*
X42208Y210280D01*
X42924Y209802D01*
X43769Y209634D01*
X60881D01*
X61051Y209388D01*
X60527Y208388D01*
X56909D01*
Y204746D01*
X61239D01*
Y203368D01*
X56909D01*
Y199726D01*
X61448D01*
X61830Y198802D01*
X60739Y197711D01*
X57397D01*
X56552Y197543D01*
X55836Y197064D01*
X51132Y192360D01*
X50653Y191644D01*
X50485Y190799D01*
Y175207D01*
X50653Y174362D01*
X51132Y173646D01*
X52701Y172077D01*
X52707Y172032D01*
X52965Y171409D01*
X53375Y170875D01*
X53909Y170465D01*
X54532Y170207D01*
X55200Y170119D01*
X55868Y170207D01*
X56491Y170465D01*
X57025Y170875D01*
X57435Y171409D01*
X57693Y172032D01*
X57781Y172700D01*
X57693Y173368D01*
X57435Y173991D01*
X57025Y174525D01*
X56491Y174935D01*
X55868Y175193D01*
X55824Y175199D01*
X55818Y175205D01*
X54901Y176122D01*
Y184690D01*
X55901Y185294D01*
X56331Y185116D01*
X57339Y184984D01*
X58346Y185116D01*
X59284Y185505D01*
X60090Y186123D01*
X60709Y186929D01*
X61098Y187868D01*
X61230Y188875D01*
X61098Y189882D01*
X60709Y190821D01*
X60090Y191627D01*
X59284Y192245D01*
X59163Y192296D01*
X59362Y193296D01*
X61653D01*
X62498Y193464D01*
X63214Y193942D01*
X67918Y198646D01*
X68397Y199363D01*
X68565Y200207D01*
Y201116D01*
X69565Y201455D01*
X69939Y200968D01*
X70843Y200274D01*
X71897Y199838D01*
X73027Y199689D01*
X74158Y199838D01*
X75212Y200274D01*
X76116Y200968D01*
X76810Y201873D01*
X77247Y202927D01*
X77396Y204057D01*
X77247Y205188D01*
X76810Y206241D01*
X76116Y207146D01*
X75212Y207840D01*
X74158Y208276D01*
X73027Y208425D01*
X71897Y208276D01*
X70843Y207840D01*
X69939Y207146D01*
X69565Y206659D01*
X68565Y206998D01*
Y207907D01*
X68397Y208752D01*
X67918Y209468D01*
X63984Y213403D01*
X63267Y213881D01*
X62423Y214049D01*
X45311D01*
X45141Y214295D01*
X45665Y215295D01*
X48362Y215295D01*
X49102Y215295D01*
X55496D01*
X56102Y215295D01*
X57102Y215295D01*
X63370D01*
X63976Y215295D01*
X64976Y215295D01*
X71244D01*
X71850Y215295D01*
X72850Y215295D01*
X79118D01*
X79724Y215295D01*
X81179Y215295D01*
X81566Y214295D01*
X81365Y213810D01*
X81277Y213142D01*
X81365Y212474D01*
X81623Y211851D01*
X82033Y211317D01*
X82568Y210906D01*
X83190Y210649D01*
X83858Y210561D01*
X84526Y210649D01*
X85149Y210906D01*
X85683Y211317D01*
X86094Y211851D01*
X86351Y212474D01*
X86439Y213142D01*
X86351Y213810D01*
X86150Y214295D01*
X86537Y215295D01*
X87598D01*
Y215295D01*
X87992D01*
Y215295D01*
X89525D01*
Y213676D01*
X84617Y208769D01*
X84569Y208733D01*
X84461Y208670D01*
X84335Y208610D01*
X84187Y208555D01*
X84016Y208507D01*
X83818Y208467D01*
X83595Y208437D01*
X83345Y208419D01*
X83101Y208416D01*
X83027Y208425D01*
X81897Y208276D01*
X80844Y207840D01*
X79939Y207146D01*
X79245Y206241D01*
X78808Y205188D01*
X78659Y204057D01*
X78808Y202927D01*
X79245Y201873D01*
X79939Y200968D01*
X80844Y200274D01*
X81897Y199838D01*
X83027Y199689D01*
X84158Y199838D01*
X85212Y200274D01*
X86116Y200968D01*
X86810Y201873D01*
X87247Y202927D01*
X87396Y204057D01*
X87386Y204130D01*
X87390Y204375D01*
X87408Y204625D01*
X87432Y204807D01*
X87489Y204882D01*
X87715Y205031D01*
X88279Y204746D01*
X92339D01*
Y208388D01*
X91787D01*
X91404Y209312D01*
X93293Y211201D01*
X93772Y211917D01*
X93940Y212762D01*
Y215295D01*
X95472D01*
Y215295D01*
X95866D01*
Y215295D01*
X96963D01*
X97329Y214295D01*
X97113Y213774D01*
X97025Y213106D01*
X97113Y212438D01*
X97371Y211816D01*
X97781Y211281D01*
X98316Y210871D01*
X98938Y210613D01*
X99606Y210525D01*
X100274Y210613D01*
X100897Y210871D01*
X100926Y210893D01*
X101926Y210400D01*
Y183074D01*
X80463D01*
X79619Y182906D01*
X78902Y182427D01*
X78639Y182164D01*
X78160Y181448D01*
X77992Y180603D01*
Y174027D01*
X77965Y173991D01*
X77707Y173368D01*
X77619Y172700D01*
X77707Y172032D01*
X77965Y171409D01*
X78375Y170875D01*
X78909Y170465D01*
X79532Y170207D01*
X80200Y170119D01*
X80868Y170207D01*
X81491Y170465D01*
X82025Y170875D01*
X82435Y171409D01*
X82693Y172032D01*
X82781Y172700D01*
X82693Y173368D01*
X82435Y173991D01*
X82408Y174026D01*
X82408Y174034D01*
Y178658D01*
X103211D01*
X104056Y178826D01*
X104772Y179305D01*
X105695Y180227D01*
X106174Y180944D01*
X106342Y181789D01*
Y187528D01*
X107041Y187802D01*
X107342Y187803D01*
X107942Y187020D01*
X108815Y186351D01*
X109832Y185930D01*
X110922Y185786D01*
X112013Y185930D01*
X113029Y186351D01*
X113902Y187020D01*
X114572Y187893D01*
X114993Y188909D01*
X115136Y190000D01*
X114993Y191091D01*
X114812Y191527D01*
X114788Y191652D01*
X114740Y191773D01*
X114708Y191871D01*
X114680Y191976D01*
X114615Y192308D01*
X114596Y192453D01*
X114550Y193151D01*
X114547Y193403D01*
X114542Y193426D01*
Y204488D01*
X114547Y204510D01*
X114559Y205330D01*
X114570Y205504D01*
X114854D01*
Y206795D01*
X114869Y206860D01*
X114866Y206877D01*
X114869Y206894D01*
X114854Y206969D01*
Y209320D01*
X114921Y209338D01*
X115154Y209377D01*
X115458Y209404D01*
X115864Y209414D01*
X115883Y209419D01*
X116000D01*
X116668Y209507D01*
X117291Y209765D01*
X117825Y210175D01*
X118235Y210709D01*
X118493Y211332D01*
X118581Y212000D01*
X118493Y212668D01*
X118235Y213291D01*
X117825Y213825D01*
X117291Y214235D01*
X116668Y214493D01*
X116000Y214581D01*
X115883D01*
X115864Y214586D01*
X115458Y214596D01*
X115154Y214623D01*
X114921Y214662D01*
X114854Y214680D01*
Y218496D01*
X109146D01*
Y214678D01*
X109087Y214662D01*
X108852Y214623D01*
X108545Y214596D01*
X108137Y214586D01*
X108117Y214581D01*
X108000D01*
X107342Y214494D01*
X107332Y214493D01*
X106342Y215165D01*
Y226232D01*
X106174Y227076D01*
X105695Y227793D01*
X105337Y228151D01*
X105719Y229075D01*
X111221D01*
Y235163D01*
X112221Y235577D01*
X116476Y231321D01*
X116520Y231261D01*
X116588Y231143D01*
X116653Y231001D01*
X116713Y230832D01*
X116766Y230634D01*
X116806Y230427D01*
X116861Y229841D01*
X116865Y229586D01*
X116853Y229500D01*
X117009Y228318D01*
X117465Y227217D01*
X118191Y226271D01*
X119137Y225545D01*
X120238Y225089D01*
X121420Y224933D01*
X122602Y225089D01*
X123703Y225545D01*
X124649Y226271D01*
X125375Y227217D01*
X125831Y228318D01*
X125987Y229500D01*
X125831Y230682D01*
X125375Y231783D01*
X124649Y232729D01*
X123703Y233455D01*
X122602Y233911D01*
X121959Y233996D01*
Y235004D01*
X122602Y235089D01*
X123703Y235545D01*
X124649Y236271D01*
X125375Y237217D01*
X125831Y238318D01*
X125987Y239500D01*
X125831Y240682D01*
X125375Y241783D01*
X124649Y242729D01*
X123703Y243455D01*
X122602Y243911D01*
X121959Y243996D01*
Y245004D01*
X122602Y245089D01*
X123703Y245545D01*
X124649Y246271D01*
X125375Y247217D01*
X125831Y248318D01*
X125987Y249500D01*
X125831Y250682D01*
X125375Y251783D01*
X124649Y252729D01*
X123703Y253455D01*
X122602Y253911D01*
X121959Y253996D01*
Y255004D01*
X122602Y255089D01*
X123703Y255545D01*
X124649Y256271D01*
X125375Y257217D01*
X125831Y258318D01*
X125987Y259500D01*
X125831Y260682D01*
X125375Y261783D01*
X124649Y262729D01*
X123703Y263455D01*
X122602Y263911D01*
X122135Y263972D01*
X122201Y264972D01*
X125947D01*
Y274028D01*
X116892D01*
Y269778D01*
X116877Y269703D01*
X116892Y269628D01*
Y268850D01*
X116699Y268572D01*
X116037Y267789D01*
X115601Y267338D01*
X115589Y267320D01*
X112144Y263875D01*
X111221Y264257D01*
Y268051D01*
X111221D01*
Y268445D01*
X111221D01*
Y275925D01*
X102018D01*
Y277259D01*
X102023Y277278D01*
X102034Y277686D01*
X102060Y277992D01*
X102100Y278227D01*
X102116Y278287D01*
X103346D01*
Y289705D01*
X103991Y290438D01*
X132642D01*
Y284142D01*
X140358D01*
Y290438D01*
X146440D01*
X155501Y281377D01*
X155507Y281332D01*
X155765Y280709D01*
X156175Y280175D01*
X156709Y279765D01*
X157332Y279507D01*
X158000Y279419D01*
X158668Y279507D01*
X159291Y279765D01*
X159825Y280175D01*
X160235Y280709D01*
X160493Y281332D01*
X160581Y282000D01*
X160493Y282668D01*
X160235Y283291D01*
X159825Y283825D01*
X159291Y284235D01*
X158668Y284493D01*
X158623Y284499D01*
X148916Y294207D01*
X148199Y294685D01*
X147354Y294853D01*
X98413D01*
X97569Y294685D01*
X96852Y294207D01*
X92802Y290157D01*
X92541Y289914D01*
X92340Y289753D01*
X92270Y289705D01*
X91931D01*
X91855Y289720D01*
X91780Y289705D01*
X87992D01*
Y289705D01*
X87598D01*
Y289705D01*
X80724D01*
X80118Y289705D01*
X79118Y289705D01*
X75937D01*
X75861Y289720D01*
X75786Y289705D01*
X75446D01*
X75393Y289742D01*
X74978Y290093D01*
X69010Y296061D01*
X68294Y296540D01*
X67690Y296660D01*
X67326Y297277D01*
X67234Y297708D01*
X67235Y297709D01*
X67493Y298332D01*
X67581Y299000D01*
X67493Y299668D01*
X67235Y300291D01*
X66825Y300825D01*
X67283Y301734D01*
X67360Y301834D01*
X67618Y302457D01*
X67706Y303125D01*
X67618Y303793D01*
X67360Y304416D01*
X66950Y304950D01*
X66416Y305360D01*
X65793Y305618D01*
X65125Y305706D01*
X64457Y305618D01*
X63834Y305360D01*
X63717Y305270D01*
X45706D01*
X45168Y305493D01*
X44500Y305581D01*
X43832Y305493D01*
X43209Y305235D01*
X42675Y304825D01*
X42265Y304291D01*
X42007Y303668D01*
X41919Y303000D01*
X42007Y302332D01*
X42265Y301709D01*
X42675Y301175D01*
X43209Y300765D01*
X43832Y300507D01*
X44500Y300419D01*
X45168Y300507D01*
X45791Y300765D01*
X45908Y300855D01*
X48959D01*
X49063Y300782D01*
X49584Y299855D01*
X49507Y299668D01*
X49419Y299000D01*
X49507Y298332D01*
X49765Y297709D01*
X49766Y297708D01*
X49273Y296708D01*
X3615D01*
X2771Y296540D01*
X2054Y296061D01*
X2004Y296010D01*
X1003Y296425D01*
Y337997D01*
X86095D01*
X86095Y310000D01*
D02*
G37*
G36*
X52819Y290142D02*
X52813Y290114D01*
X52807Y290073D01*
X52797Y289951D01*
X52792Y289720D01*
X52795Y289590D01*
X52819Y289323D01*
X52858Y289086D01*
X52913Y288882D01*
X52984Y288708D01*
X53071Y288567D01*
X53173Y288457D01*
X53291Y288378D01*
X53425Y288331D01*
X53575Y288315D01*
X50425D01*
X50575Y288331D01*
X50709Y288378D01*
X50827Y288457D01*
X50929Y288567D01*
X51016Y288708D01*
X51087Y288882D01*
X51142Y289086D01*
X51181Y289323D01*
X51204Y289579D01*
X51173Y290157D01*
X52827D01*
X52819Y290142D01*
D02*
G37*
G36*
X45115Y290225D02*
X45108Y290197D01*
X45102Y290156D01*
X45093Y290034D01*
X45087Y289759D01*
X45091Y289590D01*
X45115Y289323D01*
X45154Y289086D01*
X45209Y288882D01*
X45280Y288708D01*
X45367Y288567D01*
X45469Y288457D01*
X45587Y288378D01*
X45721Y288331D01*
X45871Y288315D01*
X42721D01*
X42871Y288331D01*
X43004Y288378D01*
X43123Y288457D01*
X43225Y288567D01*
X43312Y288708D01*
X43382Y288882D01*
X43437Y289086D01*
X43477Y289323D01*
X43500Y289590D01*
X43501Y289625D01*
X43469Y290239D01*
X45123D01*
X45115Y290225D01*
D02*
G37*
G36*
X95196Y288315D02*
X94884Y287992D01*
X94394Y287413D01*
X94216Y287157D01*
X94082Y286923D01*
X93993Y286711D01*
X93949Y286522D01*
Y286355D01*
X93993Y286210D01*
X94082Y286088D01*
X91855Y288315D01*
X91978Y288226D01*
X92123Y288181D01*
X92290D01*
X92479Y288226D01*
X92690Y288315D01*
X92924Y288448D01*
X93181Y288627D01*
X93459Y288849D01*
X94082Y289428D01*
X95196Y288315D01*
D02*
G37*
G36*
X73957Y289117D02*
X74536Y288627D01*
X74792Y288448D01*
X75026Y288315D01*
X75238Y288226D01*
X75427Y288181D01*
X75594D01*
X75739Y288226D01*
X75861Y288315D01*
X73634Y286088D01*
X73723Y286210D01*
X73768Y286355D01*
Y286522D01*
X73723Y286711D01*
X73634Y286923D01*
X73500Y287157D01*
X73322Y287413D01*
X73099Y287691D01*
X72521Y288315D01*
X73634Y289428D01*
X73957Y289117D01*
D02*
G37*
G36*
X67987Y279689D02*
X67866Y279777D01*
X67722Y279821D01*
X67555Y279819D01*
X67366Y279774D01*
X67155Y279683D01*
X66921Y279549D01*
X66664Y279369D01*
X66386Y279145D01*
X65760Y278564D01*
X64647Y279677D01*
X64960Y280001D01*
X65452Y280582D01*
X65631Y280838D01*
X65766Y281072D01*
X65856Y281284D01*
X65902Y281473D01*
X65903Y281639D01*
X65860Y281783D01*
X65772Y281904D01*
X67987Y279689D01*
D02*
G37*
G36*
X60113D02*
X59992Y279777D01*
X59848Y279821D01*
X59681Y279819D01*
X59492Y279774D01*
X59281Y279683D01*
X59047Y279549D01*
X58790Y279369D01*
X58512Y279145D01*
X57886Y278564D01*
X56773Y279677D01*
X57086Y280001D01*
X57578Y280582D01*
X57757Y280838D01*
X57892Y281072D01*
X57982Y281284D01*
X58028Y281473D01*
X58029Y281639D01*
X57986Y281783D01*
X57898Y281904D01*
X60113Y279689D01*
D02*
G37*
G36*
X85283Y279674D02*
X85150Y279626D01*
X85031Y279546D01*
X84929Y279435D01*
X84842Y279293D01*
X84772Y279118D01*
X84716Y278912D01*
X84677Y278674D01*
X84654Y278404D01*
X84646Y278103D01*
X83071D01*
X83063Y278404D01*
X83039Y278674D01*
X83000Y278912D01*
X82945Y279118D01*
X82874Y279293D01*
X82787Y279435D01*
X82685Y279546D01*
X82567Y279626D01*
X82433Y279674D01*
X82284Y279689D01*
X85433D01*
X85283Y279674D01*
D02*
G37*
G36*
X101575Y279665D02*
X101374Y279593D01*
X101197Y279474D01*
X101044Y279308D01*
X100914Y279094D01*
X100807Y278833D01*
X100725Y278525D01*
X100666Y278169D01*
X100630Y277766D01*
X100619Y277315D01*
X98256D01*
X98246Y277764D01*
X98166Y278520D01*
X98096Y278827D01*
X98006Y279087D01*
X97896Y279299D01*
X97766Y279465D01*
X97616Y279583D01*
X97446Y279654D01*
X97256Y279677D01*
X101800Y279689D01*
X101575Y279665D01*
D02*
G37*
G36*
X100642Y275165D02*
X100713Y274763D01*
X100831Y274409D01*
X100996Y274102D01*
X101209Y273842D01*
X101469Y273630D01*
X101776Y273464D01*
X102130Y273346D01*
X102532Y273275D01*
X102981Y273252D01*
X101205Y272660D01*
Y270315D01*
X101187Y270424D01*
X101134Y270522D01*
X101046Y270608D01*
X100922Y270683D01*
X100763Y270746D01*
X100569Y270798D01*
X100339Y270838D01*
X100074Y270866D01*
X99437Y270889D01*
Y273252D01*
X99773Y273257D01*
X99835Y273262D01*
X100619Y275614D01*
X100642Y275165D01*
D02*
G37*
G36*
X121623Y266362D02*
X121439Y266496D01*
X121222Y266563D01*
X120972D01*
X120688Y266496D01*
X120370Y266362D01*
X120019Y266162D01*
X119635Y265895D01*
X119218Y265561D01*
X118282Y264692D01*
X116612Y266362D01*
X117080Y266847D01*
X117815Y267715D01*
X118082Y268099D01*
X118282Y268450D01*
X118416Y268768D01*
X118483Y269052D01*
Y269302D01*
X118416Y269519D01*
X118282Y269703D01*
X121623Y266362D01*
D02*
G37*
G36*
X112336Y258746D02*
X111749Y258142D01*
X110437Y256579D01*
X110149Y256141D01*
X109936Y255744D01*
X109797Y255388D01*
X109734Y255074D01*
X109745Y254801D01*
X109830Y254570D01*
X107367Y258787D01*
X107511Y258614D01*
X107697Y258517D01*
X107926Y258495D01*
X108197Y258548D01*
X108510Y258678D01*
X108865Y258882D01*
X109262Y259163D01*
X109702Y259519D01*
X110707Y260457D01*
X112336Y258746D01*
D02*
G37*
G36*
X101205Y254596D02*
X101183Y254784D01*
X101117Y254953D01*
X101007Y255101D01*
X100854Y255230D01*
X100658Y255339D01*
X100418Y255428D01*
X100134Y255498D01*
X99807Y255547D01*
X99436Y255577D01*
X99022Y255587D01*
Y257949D01*
X99434Y257957D01*
X100129Y258024D01*
X100411Y258083D01*
X100650Y258158D01*
X100846Y258251D01*
X100998Y258360D01*
X101106Y258485D01*
X101171Y258628D01*
X101193Y258787D01*
X101205Y254596D01*
D02*
G37*
G36*
X96319Y253142D02*
X96313Y253114D01*
X96307Y253073D01*
X96297Y252951D01*
X96288Y252546D01*
X96287Y252411D01*
X94713D01*
X94673Y253156D01*
X96327D01*
X96319Y253142D01*
D02*
G37*
G36*
X168792Y248790D02*
X168630Y248779D01*
X168460Y248744D01*
X168282Y248685D01*
X168095Y248601D01*
X167899Y248492D01*
X167695Y248360D01*
X167482Y248202D01*
X167032Y247815D01*
X166793Y247585D01*
X164566Y249812D01*
X164796Y250050D01*
X165184Y250501D01*
X165341Y250714D01*
X165474Y250918D01*
X165582Y251113D01*
X165666Y251300D01*
X165726Y251479D01*
X165761Y251649D01*
X165771Y251810D01*
X168792Y248790D01*
D02*
G37*
G36*
X151884Y251649D02*
X151919Y251479D01*
X151978Y251300D01*
X152062Y251113D01*
X152171Y250918D01*
X152303Y250714D01*
X152460Y250501D01*
X152848Y250050D01*
X153078Y249812D01*
X150851Y247585D01*
X150613Y247815D01*
X150162Y248202D01*
X149949Y248360D01*
X149745Y248492D01*
X149549Y248601D01*
X149363Y248685D01*
X149184Y248744D01*
X149014Y248779D01*
X148853Y248790D01*
X151873Y251810D01*
X151884Y251649D01*
D02*
G37*
G36*
X109846Y249988D02*
X109894Y249854D01*
X109972Y249736D01*
X110082Y249634D01*
X110224Y249547D01*
X110397Y249476D01*
X110602Y249421D01*
X110838Y249382D01*
X111106Y249358D01*
X111405Y249350D01*
Y247776D01*
X111106Y247768D01*
X110838Y247744D01*
X110602Y247705D01*
X110397Y247650D01*
X110224Y247579D01*
X110082Y247492D01*
X109972Y247390D01*
X109894Y247272D01*
X109846Y247138D01*
X109830Y246988D01*
Y250138D01*
X109846Y249988D01*
D02*
G37*
G36*
X44819Y241642D02*
X44813Y241614D01*
X44807Y241573D01*
X44797Y241451D01*
X44788Y241046D01*
X44787Y240911D01*
X43213D01*
X43173Y241656D01*
X44827D01*
X44819Y241642D01*
D02*
G37*
G36*
X118679Y243375D02*
X118895Y243219D01*
X119132Y243082D01*
X119390Y242964D01*
X119670Y242864D01*
X119971Y242784D01*
X120294Y242722D01*
X120637Y242679D01*
X121002Y242655D01*
X121388Y242649D01*
X118271Y239531D01*
X118265Y239918D01*
X118198Y240626D01*
X118136Y240949D01*
X118055Y241250D01*
X117956Y241530D01*
X117838Y241788D01*
X117701Y242025D01*
X117545Y242241D01*
X117371Y242436D01*
X118484Y243549D01*
X118679Y243375D01*
D02*
G37*
G36*
X79691Y239621D02*
X78876Y238763D01*
X77860Y239973D01*
X77954Y240069D01*
X78271Y240428D01*
X78303Y240476D01*
X78325Y240516D01*
X78337Y240548D01*
X78338Y240572D01*
X79691Y239621D01*
D02*
G37*
G36*
X109845Y240963D02*
X109889Y240850D01*
X109961Y240751D01*
X110063Y240664D01*
X110193Y240591D01*
X110353Y240531D01*
X110542Y240485D01*
X110760Y240452D01*
X111006Y240432D01*
X111282Y240425D01*
Y238850D01*
X111006Y238845D01*
X110542Y238804D01*
X110353Y238769D01*
X110193Y238722D01*
X110063Y238666D01*
X109961Y238600D01*
X109889Y238523D01*
X109845Y238436D01*
X109830Y238339D01*
Y241090D01*
X109845Y240963D01*
D02*
G37*
G36*
X101516Y235967D02*
X102095Y235477D01*
X102351Y235299D01*
X102585Y235165D01*
X102797Y235076D01*
X102986Y235032D01*
X103153D01*
X103298Y235076D01*
X103420Y235165D01*
X101193Y232938D01*
X101282Y233061D01*
X101327Y233205D01*
Y233372D01*
X101282Y233562D01*
X101193Y233773D01*
X101059Y234007D01*
X100881Y234263D01*
X100659Y234542D01*
X100080Y235165D01*
X101193Y236279D01*
X101516Y235967D01*
D02*
G37*
G36*
X118679Y233375D02*
X118895Y233219D01*
X119132Y233082D01*
X119390Y232964D01*
X119670Y232864D01*
X119971Y232784D01*
X120294Y232722D01*
X120637Y232679D01*
X121002Y232655D01*
X121388Y232649D01*
X118271Y229532D01*
X118265Y229918D01*
X118198Y230626D01*
X118136Y230949D01*
X118055Y231250D01*
X117956Y231530D01*
X117838Y231788D01*
X117701Y232025D01*
X117545Y232241D01*
X117371Y232436D01*
X118484Y233549D01*
X118679Y233375D01*
D02*
G37*
G36*
X76819Y229142D02*
X76813Y229114D01*
X76807Y229073D01*
X76797Y228951D01*
X76788Y228546D01*
X76787Y228411D01*
X75213D01*
X75173Y229156D01*
X76827D01*
X76819Y229142D01*
D02*
G37*
G36*
X76795Y226598D02*
X76819Y226330D01*
X76858Y226094D01*
X76913Y225890D01*
X76984Y225716D01*
X77071Y225575D01*
X77173Y225464D01*
X77291Y225386D01*
X77425Y225338D01*
X77575Y225323D01*
X74425D01*
X74575Y225338D01*
X74709Y225386D01*
X74827Y225464D01*
X74929Y225575D01*
X75016Y225716D01*
X75087Y225890D01*
X75142Y226094D01*
X75181Y226330D01*
X75205Y226598D01*
X75213Y226897D01*
X76787D01*
X76795Y226598D01*
D02*
G37*
G36*
X68906D02*
X68929Y226330D01*
X68968Y226094D01*
X69024Y225890D01*
X69095Y225716D01*
X69181Y225575D01*
X69283Y225464D01*
X69402Y225386D01*
X69535Y225338D01*
X69685Y225323D01*
X66535D01*
X66685Y225338D01*
X66819Y225386D01*
X66937Y225464D01*
X67039Y225575D01*
X67126Y225716D01*
X67197Y225890D01*
X67252Y226094D01*
X67291Y226330D01*
X67315Y226598D01*
X67323Y226897D01*
X68898D01*
X68906Y226598D01*
D02*
G37*
G36*
X52819Y227142D02*
X52813Y227114D01*
X52807Y227073D01*
X52797Y226951D01*
X52792Y226724D01*
X52795Y226598D01*
X52819Y226330D01*
X52858Y226094D01*
X52913Y225890D01*
X52984Y225716D01*
X53071Y225575D01*
X53173Y225464D01*
X53291Y225386D01*
X53425Y225338D01*
X53575Y225323D01*
X50425D01*
X50575Y225338D01*
X50709Y225386D01*
X50827Y225464D01*
X50929Y225575D01*
X51016Y225716D01*
X51087Y225890D01*
X51142Y226094D01*
X51181Y226330D01*
X51204Y226584D01*
X51173Y227156D01*
X52827D01*
X52819Y227142D01*
D02*
G37*
G36*
X44795Y226598D02*
X44819Y226330D01*
X44858Y226094D01*
X44913Y225890D01*
X44984Y225716D01*
X45071Y225575D01*
X45173Y225464D01*
X45291Y225386D01*
X45425Y225338D01*
X45575Y225323D01*
X42425D01*
X42575Y225338D01*
X42709Y225386D01*
X42827Y225464D01*
X42929Y225575D01*
X43016Y225716D01*
X43087Y225890D01*
X43142Y226094D01*
X43181Y226330D01*
X43205Y226598D01*
X43213Y226897D01*
X44787D01*
X44795Y226598D01*
D02*
G37*
G36*
X101031Y216681D02*
X100898Y216634D01*
X100779Y216554D01*
X100677Y216443D01*
X100591Y216301D01*
X100520Y216126D01*
X100465Y215920D01*
X100425Y215682D01*
X100402Y215412D01*
X100394Y215110D01*
X98819D01*
X98811Y215412D01*
X98787Y215682D01*
X98748Y215920D01*
X98693Y216126D01*
X98622Y216301D01*
X98535Y216443D01*
X98433Y216554D01*
X98315Y216634D01*
X98181Y216681D01*
X98032Y216697D01*
X101181D01*
X101031Y216681D01*
D02*
G37*
G36*
X93158D02*
X93024Y216634D01*
X92905Y216554D01*
X92803Y216443D01*
X92716Y216301D01*
X92646Y216126D01*
X92590Y215920D01*
X92551Y215682D01*
X92528Y215412D01*
X92520Y215110D01*
X90945D01*
X90937Y215412D01*
X90913Y215682D01*
X90874Y215920D01*
X90819Y216126D01*
X90748Y216301D01*
X90661Y216443D01*
X90559Y216554D01*
X90441Y216634D01*
X90307Y216681D01*
X90158Y216697D01*
X93307D01*
X93158Y216681D01*
D02*
G37*
G36*
X85283D02*
X85150Y216634D01*
X85031Y216554D01*
X84929Y216443D01*
X84842Y216301D01*
X84772Y216126D01*
X84716Y215920D01*
X84677Y215682D01*
X84654Y215412D01*
X84646Y215110D01*
X83071D01*
X83063Y215412D01*
X83039Y215682D01*
X83000Y215920D01*
X82945Y216126D01*
X82874Y216301D01*
X82787Y216443D01*
X82685Y216554D01*
X82567Y216634D01*
X82433Y216681D01*
X82284Y216697D01*
X85433D01*
X85283Y216681D01*
D02*
G37*
G36*
X84685Y213985D02*
X83031D01*
X83039Y214000D01*
X83046Y214027D01*
X83052Y214069D01*
X83061Y214191D01*
X83070Y214596D01*
X83071Y214731D01*
X84646D01*
X84685Y213985D01*
D02*
G37*
G36*
X100433Y213950D02*
X98779D01*
X98787Y213964D01*
X98794Y213992D01*
X98800Y214033D01*
X98809Y214155D01*
X98818Y214561D01*
X98819Y214695D01*
X100394D01*
X100433Y213950D01*
D02*
G37*
G36*
X113488Y214138D02*
X113559Y213937D01*
X113677Y213760D01*
X113842Y213606D01*
X114055Y213476D01*
X114315Y213370D01*
X114622Y213287D01*
X114976Y213228D01*
X115378Y213193D01*
X115827Y213181D01*
Y210819D01*
X115378Y210807D01*
X114976Y210772D01*
X114622Y210713D01*
X114315Y210630D01*
X114055Y210524D01*
X113842Y210394D01*
X113677Y210240D01*
X113559Y210063D01*
X113488Y209862D01*
X113464Y209638D01*
Y214362D01*
X113488Y214138D01*
D02*
G37*
G36*
X110548Y209638D02*
X110524Y209862D01*
X110453Y210063D01*
X110334Y210240D01*
X110168Y210394D01*
X109954Y210524D01*
X109693Y210630D01*
X109384Y210713D01*
X109028Y210772D01*
X108624Y210807D01*
X108173Y210819D01*
Y213181D01*
X108624Y213193D01*
X109028Y213228D01*
X109384Y213287D01*
X109693Y213370D01*
X109954Y213476D01*
X110168Y213606D01*
X110334Y213760D01*
X110453Y213937D01*
X110524Y214138D01*
X110548Y214362D01*
Y209638D01*
D02*
G37*
G36*
X150851Y209540D02*
X150756Y209395D01*
X150672Y209227D01*
X150599Y209035D01*
X150537Y208820D01*
X150487Y208582D01*
X150447Y208321D01*
X150403Y207728D01*
X150397Y207397D01*
X147247D01*
X147242Y207728D01*
X147197Y208321D01*
X147158Y208582D01*
X147107Y208820D01*
X147045Y209035D01*
X146973Y209227D01*
X146888Y209395D01*
X146793Y209540D01*
X146686Y209662D01*
X150958D01*
X150851Y209540D01*
D02*
G37*
G36*
X113403Y206870D02*
X113348Y206799D01*
X113300Y206681D01*
X113258Y206516D01*
X113223Y206303D01*
X113194Y206044D01*
X113155Y205382D01*
X113142Y204532D01*
X110780D01*
X110778Y204980D01*
X110660Y206681D01*
X110624Y206799D01*
X110582Y206870D01*
X110536Y206894D01*
X113464D01*
X113403Y206870D01*
D02*
G37*
G36*
X86849Y206765D02*
X86681Y206579D01*
X86531Y206374D01*
X86399Y206152D01*
X86285Y205911D01*
X86189Y205652D01*
X86111Y205375D01*
X86051Y205080D01*
X86009Y204767D01*
X85986Y204436D01*
X85980Y204087D01*
X83057Y207010D01*
X83406Y207015D01*
X83737Y207039D01*
X84051Y207080D01*
X84346Y207140D01*
X84623Y207218D01*
X84881Y207314D01*
X85122Y207428D01*
X85345Y207560D01*
X85549Y207711D01*
X85736Y207879D01*
X86849Y206765D01*
D02*
G37*
G36*
X113142Y193386D02*
X113146Y193097D01*
X113197Y192314D01*
X113228Y192082D01*
X113310Y191659D01*
X113361Y191468D01*
X113419Y191292D01*
X113484Y191130D01*
X109844Y192584D01*
X110022Y192673D01*
X110181Y192785D01*
X110321Y192918D01*
X110443Y193074D01*
X110546Y193252D01*
X110630Y193453D01*
X110696Y193675D01*
X110743Y193920D01*
X110771Y194187D01*
X110780Y194476D01*
X113142Y193386D01*
D02*
G37*
G36*
X81027Y173544D02*
X79373D01*
X79381Y173558D01*
X79387Y173586D01*
X79393Y173627D01*
X79403Y173749D01*
X79412Y174154D01*
X79413Y174289D01*
X80987D01*
X81027Y173544D01*
D02*
G37*
G36*
X55188Y173881D02*
X54019Y172712D01*
X54014Y172727D01*
X53999Y172752D01*
X53974Y172785D01*
X53894Y172878D01*
X53615Y173171D01*
X53520Y173267D01*
X54633Y174380D01*
X55188Y173881D01*
D02*
G37*
G36*
X30188D02*
X29019Y172712D01*
X29014Y172727D01*
X28999Y172752D01*
X28974Y172785D01*
X28894Y172878D01*
X28615Y173171D01*
X28520Y173267D01*
X29633Y174380D01*
X30188Y173881D01*
D02*
G37*
G36*
X5188D02*
X4019Y172712D01*
X4014Y172727D01*
X3999Y172752D01*
X3974Y172785D01*
X3894Y172878D01*
X3615Y173171D01*
X3520Y173267D01*
X4633Y174380D01*
X5188Y173881D01*
D02*
G37*
G36*
X84652Y96925D02*
X84426Y96692D01*
X84045Y96254D01*
X83891Y96050D01*
X83761Y95856D01*
X83654Y95671D01*
X83572Y95496D01*
X83513Y95331D01*
X83479Y95175D01*
X83468Y95030D01*
X80530Y97968D01*
X80676Y97979D01*
X80831Y98014D01*
X80996Y98072D01*
X81171Y98154D01*
X81356Y98261D01*
X81550Y98391D01*
X81754Y98545D01*
X82192Y98926D01*
X82425Y99152D01*
X84652Y96925D01*
D02*
G37*
G36*
X58162Y92769D02*
X58077Y92635D01*
X58002Y92477D01*
X57936Y92295D01*
X57881Y92089D01*
X57835Y91859D01*
X57800Y91606D01*
X57760Y91027D01*
X57755Y90702D01*
X54605D01*
X54600Y91027D01*
X54560Y91606D01*
X54525Y91859D01*
X54479Y92089D01*
X54424Y92295D01*
X54359Y92477D01*
X54283Y92635D01*
X54198Y92769D01*
X54102Y92880D01*
X58258D01*
X58162Y92769D01*
D02*
G37*
G36*
X33551Y92560D02*
X33434Y92462D01*
X33329Y92339D01*
X33237Y92191D01*
X33157Y92018D01*
X33089Y91820D01*
X33034Y91596D01*
X32991Y91348D01*
X32960Y91074D01*
X32935Y90452D01*
X29785Y91096D01*
X29782Y91425D01*
X29703Y92491D01*
X29666Y92695D01*
X29623Y92874D01*
X29574Y93028D01*
X29518Y93156D01*
X29455Y93260D01*
X33551Y92560D01*
D02*
G37*
G36*
X119091Y29942D02*
X119138Y29405D01*
X119217Y28931D01*
X119327Y28520D01*
X119468Y28172D01*
X119642Y27887D01*
X119846Y27666D01*
X120083Y27508D01*
X120350Y27413D01*
X120650Y27382D01*
X114350D01*
X114650Y27413D01*
X114917Y27508D01*
X115154Y27666D01*
X115358Y27887D01*
X115532Y28172D01*
X115673Y28520D01*
X115784Y28931D01*
X115862Y29405D01*
X115909Y29942D01*
X115925Y30543D01*
X119075D01*
X119091Y29942D01*
D02*
G37*
G36*
X39091D02*
X39138Y29405D01*
X39217Y28931D01*
X39327Y28520D01*
X39469Y28172D01*
X39642Y27887D01*
X39847Y27666D01*
X40083Y27508D01*
X40350Y27413D01*
X40650Y27382D01*
X34350D01*
X34650Y27413D01*
X34917Y27508D01*
X35153Y27666D01*
X35358Y27887D01*
X35531Y28172D01*
X35673Y28520D01*
X35783Y28931D01*
X35862Y29405D01*
X35909Y29942D01*
X35925Y30543D01*
X39075D01*
X39091Y29942D01*
D02*
G37*
G36*
X139100Y30233D02*
X139177Y29731D01*
X139305Y29230D01*
X139484Y28728D01*
X139715Y28226D01*
X139996Y27724D01*
X140329Y27222D01*
X140713Y26721D01*
X141148Y26219D01*
X141634Y25717D01*
X133366D01*
X133852Y26219D01*
X134287Y26721D01*
X134671Y27222D01*
X135004Y27724D01*
X135285Y28226D01*
X135516Y28728D01*
X135695Y29230D01*
X135823Y29731D01*
X135900Y30233D01*
X135925Y30735D01*
X139075D01*
X139100Y30233D01*
D02*
G37*
G36*
X193696Y1003D02*
X1003D01*
Y80000D01*
X26135D01*
X26326Y79538D01*
X16894Y70106D01*
X16421Y69489D01*
X16123Y68771D01*
X16022Y68000D01*
Y51500D01*
X16123Y50729D01*
X16421Y50011D01*
X16894Y49394D01*
X34522Y31766D01*
Y30585D01*
X34521Y30580D01*
X34506Y30022D01*
X34467Y29582D01*
X34409Y29228D01*
X34339Y28969D01*
X34273Y28806D01*
X34260Y28785D01*
X34248Y28784D01*
X30217D01*
Y14217D01*
X44783D01*
Y28784D01*
X40752D01*
X40740Y28785D01*
X40727Y28806D01*
X40661Y28969D01*
X40591Y29228D01*
X40533Y29582D01*
X40494Y30022D01*
X40479Y30580D01*
X40478Y30584D01*
Y33000D01*
X40377Y33771D01*
X40079Y34489D01*
X39606Y35106D01*
X21978Y52734D01*
Y66766D01*
X33466Y78254D01*
X33939Y78871D01*
X34237Y79589D01*
X34291Y80000D01*
X51271Y80000D01*
X51462Y79538D01*
X42394Y70470D01*
X41921Y69853D01*
X41623Y69135D01*
X41522Y68364D01*
Y61500D01*
X41623Y60729D01*
X41921Y60011D01*
X42394Y59394D01*
X72543Y29245D01*
X72351Y28784D01*
X70217D01*
Y14217D01*
X84784D01*
Y28784D01*
X80628D01*
X80133Y28845D01*
X80032Y29616D01*
X79734Y30334D01*
X79261Y30951D01*
X79261Y30951D01*
X47478Y62734D01*
Y67130D01*
X58286Y77938D01*
X58286Y77938D01*
X58759Y78555D01*
X59057Y79273D01*
X59153Y80000D01*
X95000D01*
X100000Y75000D01*
X100000Y55000D01*
X105000Y50000D01*
X114522D01*
Y30585D01*
X114521Y30580D01*
X114506Y30022D01*
X114467Y29582D01*
X114409Y29228D01*
X114339Y28969D01*
X114273Y28806D01*
X114260Y28785D01*
X114248Y28784D01*
X110216D01*
Y14217D01*
X124784D01*
Y28784D01*
X120752D01*
X120740Y28785D01*
X120727Y28806D01*
X120661Y28969D01*
X120591Y29228D01*
X120533Y29582D01*
X120494Y30022D01*
X120479Y30580D01*
X120478Y30584D01*
Y50000D01*
X134522D01*
Y30801D01*
X134500Y30375D01*
X134444Y30012D01*
X134350Y29640D01*
X134213Y29258D01*
X134032Y28864D01*
X133804Y28457D01*
X133527Y28039D01*
X133198Y27609D01*
X132816Y27169D01*
X132388Y26727D01*
X132325Y26675D01*
X131415Y25566D01*
X130738Y24301D01*
X130322Y22928D01*
X130181Y21500D01*
X130322Y20072D01*
X130738Y18699D01*
X131415Y17434D01*
X132325Y16325D01*
X133434Y15415D01*
X134699Y14738D01*
X136072Y14322D01*
X137500Y14181D01*
X138928Y14322D01*
X140301Y14738D01*
X141566Y15415D01*
X142675Y16325D01*
X143585Y17434D01*
X144262Y18699D01*
X144678Y20072D01*
X144819Y21500D01*
X144678Y22928D01*
X144262Y24301D01*
X143585Y25566D01*
X142675Y26675D01*
X142612Y26727D01*
X142184Y27169D01*
X141802Y27609D01*
X141473Y28038D01*
X141196Y28457D01*
X140968Y28864D01*
X140787Y29258D01*
X140650Y29640D01*
X140556Y30012D01*
X140500Y30375D01*
X140478Y30801D01*
Y50000D01*
X165000D01*
X170000Y55000D01*
X170000Y207535D01*
X171056Y207972D01*
X171981Y208682D01*
X172691Y209607D01*
X173137Y210684D01*
X173290Y211841D01*
X173137Y212997D01*
X172691Y214074D01*
X171981Y215000D01*
X171056Y215709D01*
X170000Y216147D01*
Y237534D01*
X171056Y237972D01*
X171981Y238682D01*
X172242Y239022D01*
X176955D01*
X177726Y239123D01*
X178444Y239421D01*
X179061Y239894D01*
X180906Y241739D01*
X180906Y241739D01*
X181379Y242356D01*
X181677Y243074D01*
X181778Y243845D01*
Y279700D01*
X181677Y280471D01*
X181379Y281189D01*
X180906Y281806D01*
X180906Y281806D01*
X172606Y290106D01*
X171989Y290579D01*
X171271Y290877D01*
X170500Y290978D01*
X170000D01*
Y300000D01*
X165000Y305000D01*
X92500Y305000D01*
X87500Y310000D01*
X87500Y337997D01*
X193696D01*
Y1003D01*
D02*
G37*
%LPC*%
G36*
X64784Y324783D02*
X50217D01*
Y310216D01*
X64784D01*
Y324783D01*
D02*
G37*
G36*
X77500Y324819D02*
X76072Y324678D01*
X74699Y324262D01*
X73434Y323585D01*
X72325Y322675D01*
X71415Y321566D01*
X70738Y320301D01*
X70322Y318928D01*
X70181Y317500D01*
X70322Y316072D01*
X70738Y314699D01*
X71415Y313434D01*
X72325Y312325D01*
X73434Y311415D01*
X74699Y310738D01*
X76072Y310322D01*
X77500Y310181D01*
X78928Y310322D01*
X80301Y310738D01*
X81566Y311415D01*
X82675Y312325D01*
X83585Y313434D01*
X84262Y314699D01*
X84678Y316072D01*
X84819Y317500D01*
X84678Y318928D01*
X84262Y320301D01*
X83585Y321566D01*
X82675Y322675D01*
X81566Y323585D01*
X80301Y324262D01*
X78928Y324678D01*
X77500Y324819D01*
D02*
G37*
G36*
X37500D02*
X36072Y324678D01*
X34699Y324262D01*
X33434Y323585D01*
X32325Y322675D01*
X31415Y321566D01*
X30738Y320301D01*
X30322Y318928D01*
X30181Y317500D01*
X30322Y316072D01*
X30738Y314699D01*
X31415Y313434D01*
X32325Y312325D01*
X33434Y311415D01*
X34699Y310738D01*
X36072Y310322D01*
X37500Y310181D01*
X38928Y310322D01*
X40301Y310738D01*
X41566Y311415D01*
X42675Y312325D01*
X43585Y313434D01*
X44262Y314699D01*
X44678Y316072D01*
X44819Y317500D01*
X44678Y318928D01*
X44262Y320301D01*
X43585Y321566D01*
X42675Y322675D01*
X41566Y323585D01*
X40301Y324262D01*
X38928Y324678D01*
X37500Y324819D01*
D02*
G37*
G36*
X165811Y291801D02*
X165493Y291759D01*
X164554Y291370D01*
X163748Y290752D01*
X163130Y289946D01*
X162741Y289007D01*
X162699Y288689D01*
X165811D01*
Y291801D01*
D02*
G37*
G36*
Y287311D02*
X162699D01*
X162741Y286993D01*
X163130Y286054D01*
X163748Y285248D01*
X164554Y284630D01*
X165493Y284241D01*
X165811Y284199D01*
Y287311D01*
D02*
G37*
G36*
X166500Y281892D02*
X165493Y281759D01*
X164554Y281370D01*
X163748Y280752D01*
X163130Y279946D01*
X162741Y279007D01*
X162608Y278000D01*
X162741Y276993D01*
X163130Y276054D01*
X163748Y275248D01*
X164554Y274630D01*
X165493Y274241D01*
X166500Y274108D01*
X167507Y274241D01*
X168446Y274630D01*
X169252Y275248D01*
X169870Y276054D01*
X170259Y276993D01*
X170392Y278000D01*
X170259Y279007D01*
X169870Y279946D01*
X169252Y280752D01*
X168446Y281370D01*
X167507Y281759D01*
X166500Y281892D01*
D02*
G37*
G36*
X136500D02*
X135493Y281759D01*
X134554Y281370D01*
X133748Y280752D01*
X133130Y279946D01*
X132741Y279007D01*
X132608Y278000D01*
X132741Y276993D01*
X133130Y276054D01*
X133748Y275248D01*
X134554Y274630D01*
X135493Y274241D01*
X136500Y274108D01*
X137507Y274241D01*
X138446Y274630D01*
X139252Y275248D01*
X139870Y276054D01*
X140259Y276993D01*
X140392Y278000D01*
X140259Y279007D01*
X139870Y279946D01*
X139252Y280752D01*
X138446Y281370D01*
X137507Y281759D01*
X136500Y281892D01*
D02*
G37*
G36*
X136927Y267839D02*
X135797Y267690D01*
X134743Y267254D01*
X133839Y266560D01*
X133145Y265655D01*
X132708Y264602D01*
X132559Y263471D01*
X132708Y262341D01*
X133145Y261287D01*
X133839Y260383D01*
X134743Y259688D01*
X135797Y259252D01*
X136927Y259103D01*
X138058Y259252D01*
X139111Y259688D01*
X140016Y260383D01*
X140710Y261287D01*
X141147Y262341D01*
X141296Y263471D01*
X141147Y264602D01*
X140710Y265655D01*
X140016Y266560D01*
X139111Y267254D01*
X138058Y267690D01*
X136927Y267839D01*
D02*
G37*
G36*
X141258Y257802D02*
X132597D01*
Y249141D01*
X141258D01*
Y257802D01*
D02*
G37*
G36*
X136927Y246051D02*
X135797Y245902D01*
X134743Y245466D01*
X133839Y244772D01*
X133145Y243867D01*
X132708Y242813D01*
X132559Y241683D01*
X132708Y240552D01*
X133145Y239499D01*
X133839Y238594D01*
X134743Y237900D01*
X135797Y237464D01*
X136927Y237315D01*
X138058Y237464D01*
X139111Y237900D01*
X140016Y238594D01*
X140710Y239499D01*
X141147Y240552D01*
X141296Y241683D01*
X141147Y242813D01*
X140710Y243867D01*
X140016Y244772D01*
X139111Y245466D01*
X138058Y245902D01*
X136927Y246051D01*
D02*
G37*
G36*
X141258Y236014D02*
X132597D01*
Y227352D01*
X141258D01*
Y236014D01*
D02*
G37*
G36*
X136927Y224263D02*
X135797Y224114D01*
X134743Y223678D01*
X133839Y222983D01*
X133145Y222079D01*
X132708Y221025D01*
X132559Y219895D01*
X132708Y218764D01*
X133145Y217711D01*
X133839Y216806D01*
X134743Y216112D01*
X135797Y215675D01*
X136927Y215527D01*
X138058Y215675D01*
X139111Y216112D01*
X140016Y216806D01*
X140710Y217711D01*
X141147Y218764D01*
X141296Y219895D01*
X141147Y221025D01*
X140710Y222079D01*
X140016Y222983D01*
X139111Y223678D01*
X138058Y224114D01*
X136927Y224263D01*
D02*
G37*
G36*
X126862Y218496D02*
X124697D01*
Y212689D01*
X126862D01*
Y218496D01*
D02*
G37*
G36*
X123319D02*
X121153D01*
Y212689D01*
X123319D01*
Y218496D01*
D02*
G37*
G36*
X141258Y214225D02*
X132597D01*
Y205564D01*
X141258D01*
Y214225D01*
D02*
G37*
G36*
X97358Y208388D02*
X93717D01*
Y204746D01*
X97358D01*
Y208388D01*
D02*
G37*
G36*
Y203368D02*
X93717D01*
Y199726D01*
X97358D01*
Y203368D01*
D02*
G37*
G36*
X92339D02*
X88697D01*
Y199726D01*
X92339D01*
Y203368D01*
D02*
G37*
G36*
X51239Y208425D02*
X50109Y208276D01*
X49055Y207840D01*
X48151Y207146D01*
X47456Y206241D01*
X47020Y205188D01*
X46871Y204057D01*
X47020Y202927D01*
X47456Y201873D01*
X48151Y200968D01*
X49055Y200274D01*
X50109Y199838D01*
X51239Y199689D01*
X52370Y199838D01*
X53423Y200274D01*
X54328Y200968D01*
X55022Y201873D01*
X55458Y202927D01*
X55607Y204057D01*
X55458Y205188D01*
X55022Y206241D01*
X54328Y207146D01*
X53423Y207840D01*
X52370Y208276D01*
X51239Y208425D01*
D02*
G37*
G36*
X96197Y192733D02*
X88480D01*
Y185017D01*
X96197D01*
Y192733D01*
D02*
G37*
G36*
X71197D02*
X63480D01*
Y185017D01*
X71197D01*
Y192733D01*
D02*
G37*
G36*
X46197D02*
X38480D01*
Y185017D01*
X46197D01*
Y192733D01*
D02*
G37*
G36*
X21197D02*
X13480D01*
Y185017D01*
X21197D01*
Y192733D01*
D02*
G37*
G36*
X82339Y192767D02*
X81331Y192634D01*
X80393Y192245D01*
X79587Y191627D01*
X78968Y190821D01*
X78580Y189882D01*
X78447Y188875D01*
X78580Y187868D01*
X78968Y186929D01*
X79587Y186123D01*
X80393Y185505D01*
X81331Y185116D01*
X82339Y184984D01*
X83346Y185116D01*
X84284Y185505D01*
X85090Y186123D01*
X85709Y186929D01*
X86098Y187868D01*
X86230Y188875D01*
X86098Y189882D01*
X85709Y190821D01*
X85090Y191627D01*
X84284Y192245D01*
X83346Y192634D01*
X82339Y192767D01*
D02*
G37*
G36*
X126862Y211311D02*
X124008D01*
X121153D01*
Y206990D01*
X121139Y206923D01*
X121142Y206908D01*
X121139Y206894D01*
X121153Y206819D01*
Y205504D01*
X121382D01*
X121419Y204931D01*
X121422Y204523D01*
X121427Y204499D01*
Y183155D01*
X114272Y176000D01*
X105000D01*
Y164000D01*
X117000D01*
Y171428D01*
X125833Y180261D01*
X126243Y180795D01*
X126501Y181418D01*
X126589Y182086D01*
Y204481D01*
X126594Y204502D01*
X126615Y205504D01*
X126862D01*
Y206819D01*
X126877Y206894D01*
X126874Y206908D01*
X126877Y206923D01*
X126862Y206990D01*
Y211311D01*
D02*
G37*
G36*
X68028Y162676D02*
Y159564D01*
X71139D01*
X71097Y159882D01*
X70709Y160821D01*
X70090Y161627D01*
X69284Y162245D01*
X68346Y162634D01*
X68028Y162676D01*
D02*
G37*
G36*
X43028D02*
Y159564D01*
X46139D01*
X46097Y159882D01*
X45709Y160821D01*
X45090Y161627D01*
X44284Y162245D01*
X43346Y162634D01*
X43028Y162676D01*
D02*
G37*
G36*
X93028D02*
Y159564D01*
X96139D01*
X96097Y159882D01*
X95709Y160821D01*
X95090Y161627D01*
X94284Y162245D01*
X93346Y162634D01*
X93028Y162676D01*
D02*
G37*
G36*
X18028D02*
Y159564D01*
X21139D01*
X21098Y159882D01*
X20709Y160821D01*
X20090Y161627D01*
X19284Y162245D01*
X18346Y162634D01*
X18028Y162676D01*
D02*
G37*
G36*
X66650D02*
X66331Y162634D01*
X65393Y162245D01*
X64587Y161627D01*
X63968Y160821D01*
X63580Y159882D01*
X63538Y159564D01*
X66650D01*
Y162676D01*
D02*
G37*
G36*
X41650D02*
X41331Y162634D01*
X40393Y162245D01*
X39587Y161627D01*
X38968Y160821D01*
X38580Y159882D01*
X38538Y159564D01*
X41650D01*
Y162676D01*
D02*
G37*
G36*
X16650D02*
X16331Y162634D01*
X15393Y162245D01*
X14587Y161627D01*
X13968Y160821D01*
X13580Y159882D01*
X13538Y159564D01*
X16650D01*
Y162676D01*
D02*
G37*
G36*
X91650D02*
X91331Y162634D01*
X90393Y162245D01*
X89587Y161627D01*
X88968Y160821D01*
X88580Y159882D01*
X88538Y159564D01*
X91650D01*
Y162676D01*
D02*
G37*
G36*
X96139Y158186D02*
X93028D01*
Y155074D01*
X93346Y155116D01*
X94284Y155505D01*
X95090Y156123D01*
X95709Y156929D01*
X96097Y157868D01*
X96139Y158186D01*
D02*
G37*
G36*
X71139D02*
X68028D01*
Y155074D01*
X68346Y155116D01*
X69284Y155505D01*
X70090Y156123D01*
X70709Y156929D01*
X71097Y157868D01*
X71139Y158186D01*
D02*
G37*
G36*
X46139D02*
X43028D01*
Y155074D01*
X43346Y155116D01*
X44284Y155505D01*
X45090Y156123D01*
X45709Y156929D01*
X46097Y157868D01*
X46139Y158186D01*
D02*
G37*
G36*
X21139D02*
X18028D01*
Y155074D01*
X18346Y155116D01*
X19284Y155505D01*
X20090Y156123D01*
X20709Y156929D01*
X21098Y157868D01*
X21139Y158186D01*
D02*
G37*
G36*
X91650D02*
X88538D01*
X88580Y157868D01*
X88968Y156929D01*
X89587Y156123D01*
X90393Y155505D01*
X91331Y155116D01*
X91650Y155074D01*
Y158186D01*
D02*
G37*
G36*
X66650D02*
X63538D01*
X63580Y157868D01*
X63968Y156929D01*
X64587Y156123D01*
X65393Y155505D01*
X66331Y155116D01*
X66650Y155074D01*
Y158186D01*
D02*
G37*
G36*
X41650D02*
X38538D01*
X38580Y157868D01*
X38968Y156929D01*
X39587Y156123D01*
X40393Y155505D01*
X41331Y155116D01*
X41650Y155074D01*
Y158186D01*
D02*
G37*
G36*
X16650D02*
X13538D01*
X13580Y157868D01*
X13968Y156929D01*
X14587Y156123D01*
X15393Y155505D01*
X16331Y155116D01*
X16650Y155074D01*
Y158186D01*
D02*
G37*
G36*
X80500Y149384D02*
X79365Y149235D01*
X78308Y148797D01*
X77400Y148100D01*
X76703Y147192D01*
X76265Y146135D01*
X76116Y145000D01*
X76265Y143865D01*
X76703Y142808D01*
X77400Y141900D01*
X78308Y141203D01*
X79365Y140765D01*
X80500Y140616D01*
X81635Y140765D01*
X82692Y141203D01*
X83600Y141900D01*
X84297Y142808D01*
X84735Y143865D01*
X84884Y145000D01*
X84735Y146135D01*
X84297Y147192D01*
X83600Y148100D01*
X82692Y148797D01*
X81635Y149235D01*
X80500Y149384D01*
D02*
G37*
G36*
X56180D02*
X55045Y149235D01*
X53988Y148797D01*
X53080Y148100D01*
X52384Y147192D01*
X51946Y146135D01*
X51796Y145000D01*
X51946Y143865D01*
X52384Y142808D01*
X53080Y141900D01*
X53988Y141203D01*
X55045Y140765D01*
X56180Y140616D01*
X57315Y140765D01*
X58372Y141203D01*
X59280Y141900D01*
X59977Y142808D01*
X60415Y143865D01*
X60564Y145000D01*
X60415Y146135D01*
X59977Y147192D01*
X59280Y148100D01*
X58372Y148797D01*
X57315Y149235D01*
X56180Y149384D01*
D02*
G37*
G36*
X31860D02*
X30726Y149235D01*
X29668Y148797D01*
X28760Y148100D01*
X28064Y147192D01*
X27626Y146135D01*
X27476Y145000D01*
X27626Y143865D01*
X28064Y142808D01*
X28760Y141900D01*
X29668Y141203D01*
X30726Y140765D01*
X31860Y140616D01*
X32995Y140765D01*
X34052Y141203D01*
X34960Y141900D01*
X35657Y142808D01*
X36095Y143865D01*
X36244Y145000D01*
X36095Y146135D01*
X35657Y147192D01*
X34960Y148100D01*
X34052Y148797D01*
X32995Y149235D01*
X31860Y149384D01*
D02*
G37*
G36*
X7540D02*
X6406Y149235D01*
X5348Y148797D01*
X4440Y148100D01*
X3744Y147192D01*
X3306Y146135D01*
X3156Y145000D01*
X3306Y143865D01*
X3744Y142808D01*
X4440Y141900D01*
X5348Y141203D01*
X6406Y140765D01*
X7540Y140616D01*
X8675Y140765D01*
X9732Y141203D01*
X10640Y141900D01*
X11337Y142808D01*
X11775Y143865D01*
X11924Y145000D01*
X11775Y146135D01*
X11337Y147192D01*
X10640Y148100D01*
X9732Y148797D01*
X8675Y149235D01*
X7540Y149384D01*
D02*
G37*
G36*
X82339Y162767D02*
X81331Y162634D01*
X80393Y162245D01*
X79587Y161627D01*
X78968Y160821D01*
X78580Y159882D01*
X78447Y158875D01*
X78580Y157868D01*
X78968Y156929D01*
X79587Y156123D01*
X80393Y155505D01*
X81331Y155116D01*
X81986Y155030D01*
X82101Y154997D01*
X82322Y154980D01*
X82488Y154956D01*
X82638Y154926D01*
X82772Y154888D01*
X82893Y154844D01*
X83002Y154796D01*
X83101Y154742D01*
X83191Y154682D01*
X83212Y154665D01*
X88792Y149085D01*
Y137415D01*
X88586Y137208D01*
X84983D01*
X84921Y137217D01*
X84800Y137248D01*
X84667Y137296D01*
X84522Y137363D01*
X84365Y137451D01*
X84195Y137564D01*
X84014Y137703D01*
X83823Y137868D01*
X83646Y138040D01*
X83600Y138100D01*
X82692Y138797D01*
X81635Y139235D01*
X80500Y139384D01*
X79365Y139235D01*
X78308Y138797D01*
X77400Y138100D01*
X76703Y137192D01*
X76265Y136135D01*
X76116Y135000D01*
X76265Y133865D01*
X76703Y132808D01*
X77400Y131900D01*
X78308Y131203D01*
X79365Y130765D01*
X80500Y130616D01*
X81635Y130765D01*
X82692Y131203D01*
X83600Y131900D01*
X83646Y131960D01*
X83823Y132132D01*
X84014Y132298D01*
X84195Y132436D01*
X84365Y132549D01*
X84522Y132638D01*
X84667Y132704D01*
X84800Y132752D01*
X84921Y132783D01*
X84983Y132792D01*
X89500D01*
X90345Y132960D01*
X91061Y133439D01*
X92561Y134939D01*
X93040Y135655D01*
X93208Y136500D01*
Y150000D01*
X93040Y150845D01*
X92561Y151561D01*
X86416Y157706D01*
X86401Y157725D01*
X86353Y157802D01*
X86312Y157883D01*
X86278Y157970D01*
X86250Y158067D01*
X86228Y158177D01*
X86214Y158301D01*
X86209Y158442D01*
X86217Y158647D01*
X86208Y158704D01*
X86230Y158875D01*
X86098Y159882D01*
X85709Y160821D01*
X85090Y161627D01*
X84284Y162245D01*
X83346Y162634D01*
X82339Y162767D01*
D02*
G37*
G36*
X57339D02*
X56331Y162634D01*
X55393Y162245D01*
X54587Y161627D01*
X53968Y160821D01*
X53580Y159882D01*
X53447Y158875D01*
X53580Y157868D01*
X53968Y156929D01*
X54587Y156123D01*
X55393Y155505D01*
X56331Y155116D01*
X56484Y155096D01*
X56524Y155077D01*
X56992Y154963D01*
X57148Y154912D01*
X57306Y154851D01*
X57449Y154787D01*
X57578Y154719D01*
X57695Y154648D01*
X57800Y154575D01*
X57818Y154560D01*
X63292Y149085D01*
Y137208D01*
X60663D01*
X60602Y137217D01*
X60480Y137248D01*
X60347Y137296D01*
X60203Y137363D01*
X60045Y137451D01*
X59875Y137564D01*
X59694Y137703D01*
X59503Y137868D01*
X59326Y138040D01*
X59280Y138100D01*
X58372Y138797D01*
X57315Y139235D01*
X56180Y139384D01*
X55045Y139235D01*
X53988Y138797D01*
X53080Y138100D01*
X52384Y137192D01*
X51946Y136135D01*
X51796Y135000D01*
X51946Y133865D01*
X52384Y132808D01*
X53080Y131900D01*
X53988Y131203D01*
X55045Y130765D01*
X56180Y130616D01*
X57315Y130765D01*
X58372Y131203D01*
X59280Y131900D01*
X59326Y131960D01*
X59503Y132132D01*
X59694Y132298D01*
X59875Y132436D01*
X60045Y132549D01*
X60203Y132638D01*
X60347Y132704D01*
X60480Y132752D01*
X60601Y132783D01*
X60663Y132792D01*
X64578D01*
X65422Y132960D01*
X66139Y133439D01*
X67061Y134361D01*
X67540Y135078D01*
X67708Y135923D01*
Y150000D01*
X67540Y150845D01*
X67061Y151561D01*
X61220Y157402D01*
X61209Y157417D01*
X61172Y157478D01*
X61146Y157535D01*
X61127Y157592D01*
X61113Y157654D01*
X61105Y157727D01*
X61105Y157816D01*
X61114Y157922D01*
X61146Y158103D01*
X61143Y158214D01*
X61230Y158875D01*
X61098Y159882D01*
X60709Y160821D01*
X60090Y161627D01*
X59284Y162245D01*
X58346Y162634D01*
X57339Y162767D01*
D02*
G37*
G36*
X32339D02*
X31331Y162634D01*
X30393Y162245D01*
X29587Y161627D01*
X28968Y160821D01*
X28580Y159882D01*
X28447Y158875D01*
X28580Y157868D01*
X28968Y156929D01*
X29587Y156123D01*
X30393Y155505D01*
X31331Y155116D01*
X31484Y155096D01*
X31525Y155077D01*
X31992Y154963D01*
X32148Y154912D01*
X32306Y154851D01*
X32449Y154787D01*
X32578Y154719D01*
X32695Y154648D01*
X32800Y154575D01*
X32818Y154560D01*
X38292Y149085D01*
Y137208D01*
X36343D01*
X36282Y137217D01*
X36160Y137248D01*
X36028Y137296D01*
X35883Y137363D01*
X35725Y137451D01*
X35555Y137564D01*
X35375Y137703D01*
X35183Y137868D01*
X35006Y138040D01*
X34960Y138100D01*
X34052Y138797D01*
X32995Y139235D01*
X31860Y139384D01*
X30726Y139235D01*
X29668Y138797D01*
X28760Y138100D01*
X28064Y137192D01*
X27626Y136135D01*
X27476Y135000D01*
X27626Y133865D01*
X28064Y132808D01*
X28760Y131900D01*
X29668Y131203D01*
X30726Y130765D01*
X31860Y130616D01*
X32995Y130765D01*
X34052Y131203D01*
X34960Y131900D01*
X35006Y131960D01*
X35183Y132132D01*
X35375Y132298D01*
X35555Y132436D01*
X35725Y132549D01*
X35883Y132638D01*
X36028Y132704D01*
X36160Y132752D01*
X36281Y132783D01*
X36343Y132792D01*
X39577D01*
X40422Y132960D01*
X41139Y133439D01*
X42061Y134361D01*
X42540Y135078D01*
X42708Y135923D01*
Y150000D01*
X42540Y150845D01*
X42061Y151561D01*
X36220Y157402D01*
X36209Y157417D01*
X36173Y157478D01*
X36146Y157535D01*
X36127Y157592D01*
X36113Y157654D01*
X36105Y157727D01*
X36105Y157816D01*
X36114Y157922D01*
X36146Y158103D01*
X36143Y158214D01*
X36230Y158875D01*
X36097Y159882D01*
X35709Y160821D01*
X35090Y161627D01*
X34284Y162245D01*
X33346Y162634D01*
X32339Y162767D01*
D02*
G37*
G36*
X7339D02*
X6331Y162634D01*
X5393Y162245D01*
X4587Y161627D01*
X3968Y160821D01*
X3580Y159882D01*
X3447Y158875D01*
X3580Y157868D01*
X3968Y156929D01*
X4587Y156123D01*
X5393Y155505D01*
X6331Y155116D01*
X6986Y155030D01*
X7101Y154997D01*
X7322Y154980D01*
X7488Y154956D01*
X7638Y154926D01*
X7772Y154888D01*
X7893Y154844D01*
X8002Y154796D01*
X8101Y154742D01*
X8191Y154682D01*
X8212Y154665D01*
X13792Y149085D01*
Y137208D01*
X12023D01*
X11962Y137217D01*
X11840Y137248D01*
X11708Y137296D01*
X11563Y137363D01*
X11405Y137451D01*
X11236Y137564D01*
X11055Y137703D01*
X10863Y137868D01*
X10686Y138040D01*
X10640Y138100D01*
X9732Y138797D01*
X8675Y139235D01*
X7540Y139384D01*
X6406Y139235D01*
X5348Y138797D01*
X4440Y138100D01*
X3744Y137192D01*
X3306Y136135D01*
X3156Y135000D01*
X3306Y133865D01*
X3744Y132808D01*
X4440Y131900D01*
X5348Y131203D01*
X6406Y130765D01*
X7540Y130616D01*
X8675Y130765D01*
X9732Y131203D01*
X10640Y131900D01*
X10686Y131960D01*
X10863Y132132D01*
X11055Y132298D01*
X11236Y132436D01*
X11405Y132549D01*
X11563Y132638D01*
X11708Y132704D01*
X11840Y132752D01*
X11962Y132783D01*
X12023Y132792D01*
X15078D01*
X15922Y132960D01*
X16639Y133439D01*
X17561Y134361D01*
X18040Y135078D01*
X18208Y135923D01*
Y150000D01*
X18040Y150845D01*
X17561Y151561D01*
X11416Y157706D01*
X11401Y157725D01*
X11353Y157802D01*
X11312Y157883D01*
X11278Y157970D01*
X11250Y158067D01*
X11228Y158177D01*
X11214Y158301D01*
X11209Y158442D01*
X11217Y158647D01*
X11208Y158704D01*
X11230Y158875D01*
X11097Y159882D01*
X10709Y160821D01*
X10090Y161627D01*
X9284Y162245D01*
X8346Y162634D01*
X7339Y162767D01*
D02*
G37*
G36*
X7540Y99384D02*
X6406Y99235D01*
X5348Y98797D01*
X4440Y98100D01*
X3744Y97192D01*
X3306Y96135D01*
X3156Y95000D01*
X3306Y93865D01*
X3744Y92808D01*
X4440Y91900D01*
X5348Y91203D01*
X6406Y90765D01*
X7540Y90616D01*
X8675Y90765D01*
X9732Y91203D01*
X10640Y91900D01*
X11337Y92808D01*
X11775Y93865D01*
X11924Y95000D01*
X11775Y96135D01*
X11337Y97192D01*
X10640Y98100D01*
X9732Y98797D01*
X8675Y99235D01*
X7540Y99384D01*
D02*
G37*
%LPD*%
G36*
X125418Y206870D02*
X125370Y206799D01*
X125328Y206681D01*
X125291Y206516D01*
X125260Y206303D01*
X125215Y205736D01*
X125189Y204532D01*
X122827D01*
X122824Y204980D01*
X122725Y206516D01*
X122688Y206681D01*
X122645Y206799D01*
X122597Y206870D01*
X122544Y206894D01*
X125472D01*
X125418Y206870D01*
D02*
G37*
G36*
X114907Y171315D02*
X114710Y171110D01*
X114362Y170704D01*
X114212Y170503D01*
X113958Y170104D01*
X113854Y169906D01*
X113767Y169710D01*
X113695Y169514D01*
X113638Y169320D01*
X111656Y172702D01*
X111861Y172660D01*
X112066Y172644D01*
X112271Y172655D01*
X112477Y172693D01*
X112684Y172757D01*
X112891Y172847D01*
X113099Y172964D01*
X113308Y173108D01*
X113517Y173278D01*
X113726Y173474D01*
X114907Y171315D01*
D02*
G37*
G36*
X84803Y158443D02*
X84812Y158197D01*
X84839Y157960D01*
X84884Y157733D01*
X84947Y157516D01*
X85028Y157309D01*
X85128Y157111D01*
X85246Y156924D01*
X85382Y156746D01*
X85536Y156578D01*
X84351Y155536D01*
X84187Y155687D01*
X84011Y155824D01*
X83825Y155947D01*
X83628Y156055D01*
X83419Y156148D01*
X83200Y156227D01*
X82970Y156291D01*
X82728Y156342D01*
X82476Y156377D01*
X82212Y156398D01*
X84813Y158699D01*
X84803Y158443D01*
D02*
G37*
G36*
X82873Y136833D02*
X83126Y136613D01*
X83378Y136420D01*
X83631Y136252D01*
X83883Y136110D01*
X84136Y135994D01*
X84388Y135904D01*
X84640Y135839D01*
X84891Y135800D01*
X85143Y135787D01*
Y134213D01*
X84891Y134200D01*
X84640Y134161D01*
X84388Y134097D01*
X84136Y134006D01*
X83883Y133890D01*
X83631Y133748D01*
X83378Y133580D01*
X83126Y133387D01*
X82873Y133167D01*
X82620Y132922D01*
Y137078D01*
X82873Y136833D01*
D02*
G37*
G36*
X59719Y158105D02*
X59699Y157871D01*
X59701Y157645D01*
X59725Y157427D01*
X59771Y157216D01*
X59839Y157014D01*
X59929Y156819D01*
X60042Y156631D01*
X60176Y156452D01*
X60333Y156280D01*
X58974Y155412D01*
X58816Y155560D01*
X58646Y155697D01*
X58464Y155825D01*
X58270Y155943D01*
X58064Y156051D01*
X57847Y156149D01*
X57617Y156237D01*
X57376Y156315D01*
X56858Y156442D01*
X59762Y158346D01*
X59719Y158105D01*
D02*
G37*
G36*
X58553Y136833D02*
X58806Y136613D01*
X59058Y136420D01*
X59311Y136252D01*
X59563Y136110D01*
X59816Y135994D01*
X60068Y135904D01*
X60320Y135839D01*
X60572Y135800D01*
X60823Y135787D01*
Y134213D01*
X60572Y134200D01*
X60320Y134161D01*
X60068Y134097D01*
X59816Y134006D01*
X59563Y133890D01*
X59311Y133748D01*
X59058Y133580D01*
X58806Y133387D01*
X58553Y133167D01*
X58300Y132922D01*
Y137078D01*
X58553Y136833D01*
D02*
G37*
G36*
X34719Y158105D02*
X34699Y157871D01*
X34701Y157645D01*
X34725Y157427D01*
X34771Y157216D01*
X34839Y157014D01*
X34929Y156819D01*
X35042Y156631D01*
X35177Y156452D01*
X35333Y156280D01*
X33974Y155412D01*
X33816Y155560D01*
X33646Y155697D01*
X33464Y155825D01*
X33270Y155943D01*
X33064Y156051D01*
X32847Y156149D01*
X32617Y156237D01*
X32376Y156315D01*
X31858Y156442D01*
X34762Y158346D01*
X34719Y158105D01*
D02*
G37*
G36*
X34233Y136833D02*
X34486Y136613D01*
X34739Y136420D01*
X34991Y136252D01*
X35243Y136110D01*
X35496Y135994D01*
X35748Y135904D01*
X36000Y135839D01*
X36252Y135800D01*
X36503Y135787D01*
Y134213D01*
X36252Y134200D01*
X36000Y134161D01*
X35748Y134097D01*
X35496Y134006D01*
X35243Y133890D01*
X34991Y133748D01*
X34739Y133580D01*
X34486Y133387D01*
X34233Y133167D01*
X33980Y132922D01*
Y137078D01*
X34233Y136833D01*
D02*
G37*
G36*
X9803Y158443D02*
X9812Y158197D01*
X9839Y157960D01*
X9884Y157733D01*
X9947Y157516D01*
X10029Y157309D01*
X10128Y157111D01*
X10246Y156924D01*
X10382Y156746D01*
X10536Y156578D01*
X9351Y155536D01*
X9187Y155687D01*
X9011Y155824D01*
X8825Y155947D01*
X8628Y156055D01*
X8419Y156148D01*
X8200Y156227D01*
X7970Y156291D01*
X7728Y156342D01*
X7476Y156377D01*
X7212Y156398D01*
X9813Y158699D01*
X9803Y158443D01*
D02*
G37*
G36*
X9913Y136833D02*
X10166Y136613D01*
X10419Y136420D01*
X10671Y136252D01*
X10924Y136110D01*
X11176Y135994D01*
X11428Y135904D01*
X11680Y135839D01*
X11932Y135800D01*
X12184Y135787D01*
Y134213D01*
X11932Y134200D01*
X11680Y134161D01*
X11428Y134097D01*
X11176Y134006D01*
X10924Y133890D01*
X10671Y133748D01*
X10419Y133580D01*
X10166Y133387D01*
X9913Y133167D01*
X9660Y132922D01*
Y137078D01*
X9913Y136833D01*
D02*
G37*
%LPC*%
G36*
X157500Y324819D02*
X156072Y324678D01*
X154699Y324262D01*
X153434Y323585D01*
X152325Y322675D01*
X151415Y321566D01*
X150738Y320301D01*
X150322Y318928D01*
X150181Y317500D01*
X150322Y316072D01*
X150738Y314699D01*
X151415Y313434D01*
X152325Y312325D01*
X153434Y311415D01*
X154699Y310738D01*
X156072Y310322D01*
X157500Y310181D01*
X158928Y310322D01*
X160301Y310738D01*
X161566Y311415D01*
X162675Y312325D01*
X163585Y313434D01*
X164262Y314699D01*
X164678Y316072D01*
X164819Y317500D01*
X164678Y318928D01*
X164262Y320301D01*
X163585Y321566D01*
X162675Y322675D01*
X161566Y323585D01*
X160301Y324262D01*
X158928Y324678D01*
X157500Y324819D01*
D02*
G37*
G36*
X137500D02*
X117500D01*
X117142Y324783D01*
X110216D01*
Y317858D01*
X110181Y317500D01*
X110216Y317142D01*
Y310216D01*
X117142D01*
X117500Y310181D01*
X137500D01*
X138928Y310322D01*
X140301Y310738D01*
X141566Y311415D01*
X142675Y312325D01*
X143585Y313434D01*
X144262Y314699D01*
X144678Y316072D01*
X144819Y317500D01*
X144678Y318928D01*
X144262Y320301D01*
X143585Y321566D01*
X142675Y322675D01*
X141566Y323585D01*
X140301Y324262D01*
X138928Y324678D01*
X137500Y324819D01*
D02*
G37*
G36*
X97500D02*
X96072Y324678D01*
X94699Y324262D01*
X93434Y323585D01*
X92325Y322675D01*
X91415Y321566D01*
X90738Y320301D01*
X90322Y318928D01*
X90181Y317500D01*
X90322Y316072D01*
X90738Y314699D01*
X91415Y313434D01*
X92325Y312325D01*
X93434Y311415D01*
X94699Y310738D01*
X96072Y310322D01*
X97500Y310181D01*
X98928Y310322D01*
X100301Y310738D01*
X101566Y311415D01*
X102675Y312325D01*
X103585Y313434D01*
X104262Y314699D01*
X104678Y316072D01*
X104819Y317500D01*
X104678Y318928D01*
X104262Y320301D01*
X103585Y321566D01*
X102675Y322675D01*
X101566Y323585D01*
X100301Y324262D01*
X98928Y324678D01*
X97500Y324819D01*
D02*
G37*
G36*
X180922Y194214D02*
X179832Y194070D01*
X178815Y193649D01*
X177943Y192980D01*
X177273Y192107D01*
X176852Y191091D01*
X176708Y190000D01*
X176852Y188909D01*
X177273Y187893D01*
X177943Y187020D01*
X178815Y186351D01*
X179832Y185930D01*
X180922Y185786D01*
X182013Y185930D01*
X183029Y186351D01*
X183902Y187020D01*
X184572Y187893D01*
X184993Y188909D01*
X185136Y190000D01*
X184993Y191091D01*
X184572Y192107D01*
X183902Y192980D01*
X183029Y193649D01*
X182013Y194070D01*
X180922Y194214D01*
D02*
G37*
G36*
Y94214D02*
X179832Y94070D01*
X178815Y93649D01*
X177943Y92980D01*
X177273Y92107D01*
X176852Y91091D01*
X176708Y90000D01*
X176852Y88909D01*
X177273Y87893D01*
X177943Y87020D01*
X178815Y86351D01*
X179832Y85930D01*
X180922Y85786D01*
X182013Y85930D01*
X183029Y86351D01*
X183902Y87020D01*
X184572Y87893D01*
X184993Y88909D01*
X185136Y90000D01*
X184993Y91091D01*
X184572Y92107D01*
X183902Y92980D01*
X183029Y93649D01*
X182013Y94070D01*
X180922Y94214D01*
D02*
G37*
G36*
X157500Y28819D02*
X156072Y28678D01*
X154699Y28262D01*
X153434Y27585D01*
X152325Y26675D01*
X151415Y25566D01*
X150738Y24301D01*
X150322Y22928D01*
X150181Y21500D01*
X150322Y20072D01*
X150738Y18699D01*
X151415Y17434D01*
X152325Y16325D01*
X153434Y15415D01*
X154699Y14738D01*
X156072Y14322D01*
X157500Y14181D01*
X158928Y14322D01*
X160301Y14738D01*
X161566Y15415D01*
X162675Y16325D01*
X163585Y17434D01*
X164262Y18699D01*
X164678Y20072D01*
X164819Y21500D01*
X164678Y22928D01*
X164262Y24301D01*
X163585Y25566D01*
X162675Y26675D01*
X161566Y27585D01*
X160301Y28262D01*
X158928Y28678D01*
X157500Y28819D01*
D02*
G37*
G36*
X97500D02*
X96072Y28678D01*
X94699Y28262D01*
X93434Y27585D01*
X92325Y26675D01*
X91415Y25566D01*
X90738Y24301D01*
X90322Y22928D01*
X90181Y21500D01*
X90322Y20072D01*
X90738Y18699D01*
X91415Y17434D01*
X92325Y16325D01*
X93434Y15415D01*
X94699Y14738D01*
X96072Y14322D01*
X97500Y14181D01*
X98928Y14322D01*
X100301Y14738D01*
X101566Y15415D01*
X102675Y16325D01*
X103585Y17434D01*
X104262Y18699D01*
X104678Y20072D01*
X104819Y21500D01*
X104678Y22928D01*
X104262Y24301D01*
X103585Y25566D01*
X102675Y26675D01*
X101566Y27585D01*
X100301Y28262D01*
X98928Y28678D01*
X97500Y28819D01*
D02*
G37*
G36*
X57500D02*
X56072Y28678D01*
X54699Y28262D01*
X53434Y27585D01*
X52325Y26675D01*
X51415Y25566D01*
X50738Y24301D01*
X50322Y22928D01*
X50181Y21500D01*
X50322Y20072D01*
X50738Y18699D01*
X51415Y17434D01*
X52325Y16325D01*
X53434Y15415D01*
X54699Y14738D01*
X56072Y14322D01*
X57500Y14181D01*
X58928Y14322D01*
X60301Y14738D01*
X61566Y15415D01*
X62675Y16325D01*
X63585Y17434D01*
X64262Y18699D01*
X64678Y20072D01*
X64819Y21500D01*
X64678Y22928D01*
X64262Y24301D01*
X63585Y25566D01*
X62675Y26675D01*
X61566Y27585D01*
X60301Y28262D01*
X58928Y28678D01*
X57500Y28819D01*
D02*
G37*
%LPD*%
D13*
X121420Y269500D02*
D03*
D14*
Y259500D02*
D03*
Y239500D02*
D03*
Y229500D02*
D03*
Y249500D02*
D03*
D28*
X112000Y212000D02*
D03*
X124008D02*
D03*
D29*
X44488Y283996D02*
D03*
X52362D02*
D03*
X60236D02*
D03*
X68110D02*
D03*
X75984D02*
D03*
X83858D02*
D03*
X91732D02*
D03*
X99606D02*
D03*
Y221004D02*
D03*
X91732D02*
D03*
X83858D02*
D03*
X75984D02*
D03*
X68110D02*
D03*
X60236D02*
D03*
X52362D02*
D03*
X44362D02*
D03*
D30*
X105512Y272185D02*
D03*
Y264311D02*
D03*
Y256437D02*
D03*
Y248563D02*
D03*
Y240689D02*
D03*
Y232815D02*
D03*
D31*
X81000Y95500D02*
X148822Y163322D01*
X117500Y125597D02*
X154826Y162923D01*
X117500Y21500D02*
Y125597D01*
X148822Y163322D02*
Y211841D01*
X81000Y95000D02*
Y95500D01*
X154826Y162923D02*
Y245837D01*
X137500Y21500D02*
Y139194D01*
X159354Y161048D01*
X168822Y241841D02*
X168982Y242000D01*
X176955D02*
X178800Y243845D01*
Y279700D01*
X168982Y242000D02*
X176955D01*
X166500Y288000D02*
X170500D01*
X178800Y279700D01*
X159354Y161048D02*
Y242372D01*
X148822Y251841D02*
X154826Y245837D01*
X159354Y242372D02*
X168822Y251841D01*
X19000Y51500D02*
Y68000D01*
X31360Y80360D02*
Y95000D01*
X19000Y68000D02*
X31360Y80360D01*
X19000Y51500D02*
X37500Y33000D01*
Y21500D02*
Y33000D01*
X77155Y21000D02*
Y28845D01*
X44500Y61500D02*
Y68364D01*
Y61500D02*
X77155Y28845D01*
X44500Y68364D02*
X56180Y80044D01*
Y95000D01*
D32*
X147354Y292646D02*
X158000Y282000D01*
X98413Y292646D02*
X147354D01*
X95500Y240858D02*
Y254000D01*
X111282Y239638D02*
X121420Y229500D01*
X105512Y240689D02*
X106563Y239638D01*
X111282D01*
X121420Y229500D02*
X121420D01*
X112357Y248563D02*
X121485Y239435D01*
X105512Y248563D02*
X112357D01*
X102078Y228287D02*
X104134Y226232D01*
X80200Y180603D02*
X80463Y180866D01*
X79106Y240106D02*
Y240393D01*
X52000Y221366D02*
X52362Y221004D01*
X2693Y175207D02*
Y293578D01*
X91732Y283996D02*
Y285965D01*
X52693Y175207D02*
Y190799D01*
X43500Y284984D02*
X44488Y283996D01*
X52000Y221366D02*
Y228000D01*
X39835Y215776D02*
Y253752D01*
X27693Y175207D02*
X30200Y172700D01*
X68110Y229110D02*
X79106Y240106D01*
X62423Y211842D02*
X66357Y207907D01*
X52000Y286358D02*
Y291000D01*
X83858Y213142D02*
Y221004D01*
X104134Y181789D02*
Y226232D01*
X80463Y180866D02*
X103211D01*
X79106Y240393D02*
X79500Y240787D01*
X67449Y294500D02*
X75984Y285965D01*
X91732D02*
X98413Y292646D01*
X84781Y228287D02*
X102078D01*
X52693Y175207D02*
X55200Y172700D01*
X95500Y240858D02*
X103543Y232815D01*
X43769Y211842D02*
X62423D01*
X44000Y221366D02*
Y242500D01*
X39835Y215776D02*
X43769Y211842D01*
X103211Y180866D02*
X104134Y181789D01*
X80200Y172700D02*
Y180603D01*
X3615Y294500D02*
X67449D01*
X51000Y285358D02*
X52000Y286358D01*
X83858Y229210D02*
Y283996D01*
X43500Y284984D02*
X44296Y285780D01*
X103543Y232815D02*
X105512D01*
X52693Y190799D02*
X57397Y195503D01*
X75984Y221004D02*
X76000Y221020D01*
X44000Y221366D02*
X44362Y221004D01*
X2693Y175207D02*
X5200Y172700D01*
X27693Y193331D02*
X34569Y200207D01*
X75984Y283996D02*
Y285965D01*
X68110Y282028D02*
Y283996D01*
X83858Y229210D02*
X84781Y228287D01*
X76000Y221020D02*
Y230000D01*
X44296Y285780D02*
Y291083D01*
X57397Y195503D02*
X61653D01*
X68110Y221004D02*
Y229110D01*
X34569Y200207D02*
Y256360D01*
X60236Y282028D02*
Y283996D01*
X44296Y291083D02*
X44323Y291110D01*
X99606Y213106D02*
Y221004D01*
X66357Y200207D02*
Y207907D01*
X44362Y221004D02*
X44362Y221004D01*
X2693Y293578D02*
X3615Y294500D01*
X39835Y253752D02*
X68110Y282028D01*
X61653Y195503D02*
X66357Y200207D01*
X27693Y175207D02*
Y193331D01*
X34569Y256360D02*
X60236Y282028D01*
X51000Y285358D02*
X52362Y283996D01*
X91732Y212762D02*
Y221004D01*
X83027Y204057D02*
X91732Y212762D01*
X65062Y303063D02*
X65125Y303125D01*
X44563Y303063D02*
X65062D01*
X44500Y303000D02*
X44563Y303063D01*
X52000Y299000D02*
X65000D01*
X6540Y135000D02*
X15078D01*
X16000Y135923D01*
Y150000D01*
X7339Y158661D02*
X16000Y150000D01*
X7339Y158661D02*
Y158875D01*
X57339Y158161D02*
X65500Y150000D01*
X56180Y135000D02*
X64578D01*
X65500Y135923D02*
Y150000D01*
X64578Y135000D02*
X65500Y135923D01*
X57339Y158161D02*
Y158875D01*
X31360Y135000D02*
X39577D01*
X32339Y158161D02*
Y158875D01*
Y158161D02*
X40500Y150000D01*
X39577Y135000D02*
X40500Y135923D01*
Y150000D01*
X81000Y135000D02*
X89500D01*
X82339Y158661D02*
Y158875D01*
Y158661D02*
X91000Y150000D01*
Y136500D02*
Y150000D01*
X89500Y135000D02*
X91000Y136500D01*
X111922Y190000D02*
X111961Y190039D01*
Y211961D02*
X112000Y212000D01*
D33*
X105512Y256437D02*
X106693Y257618D01*
X109538D01*
X121420Y269500D01*
X105181Y256768D02*
X105512Y256437D01*
X99022Y256768D02*
X105181D01*
X96331Y259458D02*
X99022Y256768D01*
X96331Y259458D02*
Y272118D01*
X99390D01*
X99437Y272071D01*
Y283827D02*
X99606Y283996D01*
X99437Y272071D02*
X105397D01*
X105512Y272185D01*
X99437Y272071D02*
Y283827D01*
X108000Y212000D02*
X112000D01*
X111961Y190039D02*
Y211961D01*
X112000Y212000D02*
X116000D01*
X124008Y182086D02*
Y212000D01*
X111922Y170000D02*
X124008Y182086D01*
D34*
X117500Y317500D02*
X137500D01*
D35*
X136927Y231683D02*
D03*
Y253471D02*
D03*
Y209895D02*
D03*
D36*
Y241683D02*
D03*
Y263471D02*
D03*
Y219895D02*
D03*
X83027Y204057D02*
D03*
X73027D02*
D03*
X41239D02*
D03*
X51239D02*
D03*
X19451D02*
D03*
X9451D02*
D03*
D37*
X166500Y288000D02*
D03*
X136500Y278000D02*
D03*
X166500D02*
D03*
X82339Y158875D02*
D03*
Y188875D02*
D03*
X92339Y158875D02*
D03*
X57339D02*
D03*
Y188875D02*
D03*
X67339Y158875D02*
D03*
X7339D02*
D03*
X32339D02*
D03*
Y188875D02*
D03*
X7339D02*
D03*
X42339Y158875D02*
D03*
X17339D02*
D03*
D38*
X136500Y288000D02*
D03*
D39*
X180922Y190000D02*
D03*
X110922D02*
D03*
Y170000D02*
D03*
X180922Y70000D02*
D03*
Y90000D02*
D03*
D40*
X168822Y241841D02*
D03*
X148822D02*
D03*
Y211841D02*
D03*
Y251841D02*
D03*
X168822D02*
D03*
Y211841D02*
D03*
D41*
X177500Y317500D02*
D03*
X117500D02*
D03*
X57500D02*
D03*
X117500Y21500D02*
D03*
X37500D02*
D03*
X77500D02*
D03*
D42*
X137500Y317500D02*
D03*
X157500D02*
D03*
X77500D02*
D03*
X97500D02*
D03*
X37500D02*
D03*
X157500Y21500D02*
D03*
X137500D02*
D03*
X57500D02*
D03*
X97500D02*
D03*
D43*
X93028Y204057D02*
D03*
X61239D02*
D03*
X29451D02*
D03*
D44*
X80500Y145000D02*
D03*
Y135000D02*
D03*
Y95000D02*
D03*
X56180D02*
D03*
Y135000D02*
D03*
Y145000D02*
D03*
X31860Y95000D02*
D03*
Y135000D02*
D03*
Y145000D02*
D03*
X7540D02*
D03*
Y135000D02*
D03*
Y95000D02*
D03*
D45*
X80500Y65000D02*
D03*
X56180D02*
D03*
X31860D02*
D03*
X7540D02*
D03*
D46*
X92339Y188875D02*
D03*
X67339D02*
D03*
X17339D02*
D03*
X42339D02*
D03*
D47*
X106900Y137000D02*
D03*
X158000Y282000D02*
D03*
X95500Y254000D02*
D03*
X96331Y272118D02*
D03*
X52000Y291000D02*
D03*
X80200Y172700D02*
D03*
X83858Y213142D02*
D03*
X52000Y228000D02*
D03*
X79500Y240787D02*
D03*
X44296Y291083D02*
D03*
X44000Y242500D02*
D03*
X99606Y213106D02*
D03*
X5200Y172700D02*
D03*
X76000Y230000D02*
D03*
X55200Y172700D02*
D03*
X30200D02*
D03*
X65125Y303125D02*
D03*
X65000Y299000D02*
D03*
X52000D02*
D03*
X44500Y303000D02*
D03*
X108000Y212000D02*
D03*
X116000D02*
D03*
M02*
