G04*
G04 #@! TF.GenerationSoftware,Altium Limited,Altium Designer,20.1.8 (145)*
G04*
G04 Layer_Color=16711935*
%FSLAX25Y25*%
%MOIN*%
G70*
G04*
G04 #@! TF.SameCoordinates,C1F37BB6-5B76-4B97-91C3-AF8EDC61D9EA*
G04*
G04*
G04 #@! TF.FilePolarity,Negative*
G04*
G01*
G75*
%ADD13R,0.06299X0.06299*%
%ADD14C,0.06299*%
%ADD15C,0.05354*%
%ADD16R,0.05354X0.05354*%
%ADD17C,0.05994*%
%ADD18C,0.06496*%
%ADD19R,0.12205X0.12205*%
%ADD20C,0.12205*%
%ADD21R,0.06299X0.06299*%
%ADD22C,0.06331*%
%ADD23R,0.06331X0.06331*%
%ADD24R,0.05354X0.05354*%
%ADD25C,0.06693*%
%ADD26R,0.06693X0.06693*%
%ADD27C,0.02756*%
%ADD48R,0.03378X0.04969*%
%ADD59R,0.03772X0.05363*%
%ADD60R,0.03543X0.03937*%
%ADD61R,0.03937X0.04134*%
%ADD62R,0.04158X0.06922*%
%ADD63R,0.05315X0.06102*%
%ADD64R,0.05363X0.03772*%
%ADD65R,0.05906X0.06299*%
%ADD66R,0.05906X0.11417*%
G04:AMPARAMS|DCode=67|XSize=74.8mil|YSize=122.05mil|CornerRadius=0mil|HoleSize=0mil|Usage=FLASHONLY|Rotation=90.000|XOffset=0mil|YOffset=0mil|HoleType=Round|Shape=Octagon|*
%AMOCTAGOND67*
4,1,8,-0.06102,-0.01870,-0.06102,0.01870,-0.04232,0.03740,0.04232,0.03740,0.06102,0.01870,0.06102,-0.01870,0.04232,-0.03740,-0.04232,-0.03740,-0.06102,-0.01870,0.0*
%
%ADD67OCTAGOND67*%

%ADD68R,0.06693X0.02362*%
%ADD69R,0.05118X0.02362*%
D13*
X136927Y231683D02*
D03*
Y253471D02*
D03*
Y209895D02*
D03*
D14*
Y241683D02*
D03*
Y263471D02*
D03*
Y219895D02*
D03*
X83027Y204057D02*
D03*
X73027D02*
D03*
X41239D02*
D03*
X51239D02*
D03*
X19451D02*
D03*
X9451D02*
D03*
D15*
X166500Y288000D02*
D03*
X136500Y278000D02*
D03*
X166500D02*
D03*
X82339Y158875D02*
D03*
Y188875D02*
D03*
X92339Y158875D02*
D03*
X57339D02*
D03*
Y188875D02*
D03*
X67339Y158875D02*
D03*
X7339D02*
D03*
X32339D02*
D03*
Y188875D02*
D03*
X7339D02*
D03*
X42339Y158875D02*
D03*
X17339D02*
D03*
D16*
X136500Y288000D02*
D03*
D17*
X180922Y190000D02*
D03*
X110922D02*
D03*
Y170000D02*
D03*
X180922Y70000D02*
D03*
Y90000D02*
D03*
D18*
X168822Y241841D02*
D03*
X148822D02*
D03*
Y211841D02*
D03*
Y251841D02*
D03*
X168822D02*
D03*
Y211841D02*
D03*
D19*
X177500Y317500D02*
D03*
X117500D02*
D03*
X57500D02*
D03*
X117500Y21500D02*
D03*
X37500D02*
D03*
X77500D02*
D03*
D20*
X137500Y317500D02*
D03*
X157500D02*
D03*
X77500D02*
D03*
X97500D02*
D03*
X37500D02*
D03*
X157500Y21500D02*
D03*
X137500D02*
D03*
X57500D02*
D03*
X97500D02*
D03*
D21*
X93028Y204057D02*
D03*
X61239D02*
D03*
X29451D02*
D03*
D22*
X80500Y145000D02*
D03*
Y135000D02*
D03*
Y95000D02*
D03*
X56180D02*
D03*
Y135000D02*
D03*
Y145000D02*
D03*
X31860Y95000D02*
D03*
Y135000D02*
D03*
Y145000D02*
D03*
X7540D02*
D03*
Y135000D02*
D03*
Y95000D02*
D03*
D23*
X80500Y65000D02*
D03*
X56180D02*
D03*
X31860D02*
D03*
X7540D02*
D03*
D24*
X92339Y188875D02*
D03*
X67339D02*
D03*
X17339D02*
D03*
X42339D02*
D03*
D25*
X121420Y259500D02*
D03*
Y239500D02*
D03*
Y229500D02*
D03*
Y249500D02*
D03*
D26*
Y269500D02*
D03*
D27*
X106900Y137000D02*
D03*
X158000Y282000D02*
D03*
X95500Y254000D02*
D03*
X96331Y272118D02*
D03*
X52000Y291000D02*
D03*
X80200Y172700D02*
D03*
X83858Y213142D02*
D03*
X52000Y228000D02*
D03*
X79500Y240787D02*
D03*
X44296Y291083D02*
D03*
X44000Y242500D02*
D03*
X99606Y213106D02*
D03*
X5200Y172700D02*
D03*
X76000Y230000D02*
D03*
X55200Y172700D02*
D03*
X30200D02*
D03*
X65125Y303125D02*
D03*
X65000Y299000D02*
D03*
X52000D02*
D03*
X44500Y303000D02*
D03*
X108000Y212000D02*
D03*
X116000D02*
D03*
D48*
X93941Y290000D02*
D03*
X100059D02*
D03*
Y279747D02*
D03*
X93941D02*
D03*
D59*
X120638Y219697D02*
D03*
X126756D02*
D03*
X154118Y274000D02*
D03*
X148000D02*
D03*
X86221Y172700D02*
D03*
X92339D02*
D03*
X42339D02*
D03*
X36220D02*
D03*
X61221D02*
D03*
X67339D02*
D03*
X17339D02*
D03*
X11220D02*
D03*
X37500Y242500D02*
D03*
X31382D02*
D03*
D60*
X155822Y264341D02*
D03*
X159562Y256467D02*
D03*
X163303Y264341D02*
D03*
D61*
X164523Y227341D02*
D03*
X152121D02*
D03*
D62*
X67942Y286500D02*
D03*
X57500D02*
D03*
D63*
X58000Y271307D02*
D03*
X52500Y242500D02*
D03*
X141307Y134522D02*
D03*
Y179000D02*
D03*
X74693Y272000D02*
D03*
X51307Y271307D02*
D03*
X59193Y242500D02*
D03*
X148000Y134522D02*
D03*
Y179000D02*
D03*
X68000Y272000D02*
D03*
D64*
X150500Y288000D02*
D03*
Y281882D02*
D03*
D65*
X140520Y124466D02*
D03*
X148000D02*
D03*
D66*
X136189Y166839D02*
D03*
X148000D02*
D03*
D67*
X138157Y149106D02*
D03*
D68*
X147213D02*
D03*
D69*
X148000Y143200D02*
D03*
Y155011D02*
D03*
M02*
