M48
;Layer_Color=9474304
;FILE_FORMAT=2:5
INCH,LZ
;TYPE=PLATED
T1F00S00C0.01181
T2F00S00C0.03150
T3F00S00C0.03346
T4F00S00C0.03937
T5F00S00C0.04331
T6F00S00C0.06299
%
T01
X00052Y01727
X00302
X00552
X00802
X01069Y0137
X0108Y0212
X0116
X0099606Y0213106
X0083858Y0213142
X0076Y023
X00795Y0240787
X00955Y0254
X0096331Y0272118
X0065Y0299
X0065125Y0303125
X0052Y0299
Y0291
X0044296Y0291083
X00445Y0303
X0044Y02425
X0052Y0228
X0158Y0282
T02
X0180922Y007
Y009
X0110922Y017
Y019
X0180922
T03
X0007339Y0158875
X0017339
X0032339
X0042339
X0057339
X0067339
X0082339
X0092339
Y0188875
X0082339
X0067339
X0057339
X0042339
X0032339
X0017339
X0007339
X01365Y0278
Y0288
X01665
Y0278
T04
X000754Y0065
X003186
X005618
X00805
Y0095
X005618
X003186
X000754
Y0135
Y0145
X003186
Y0135
X005618
Y0145
X00805
Y0135
X0083027Y0204057
X0073027
X0061239
X0051239
X0041239
X0029451
X0019451
X0009451
X0093028
X0136927Y0209895
Y0219895
Y0231683
Y0241683
Y0253471
Y0263471
X0148822Y0251841
Y0241841
X0168822
Y0251841
Y0211841
X0148822
T05
X012142Y02295
Y02395
Y02495
Y02595
Y02695
T06
X01575Y00215
X01375
X01175
X00975
X00775
X00575
X00375
Y03175
X00575
X00775
X00975
X01175
X01375
X01575
X01775
M30
